<?xml version="1.0" encoding="utf-8"?>
<!-- Generator: Adobe Illustrator 28.0.0, SVG Export Plug-In . SVG Version: 6.00 Build 0)  -->
<svg version="1.1" id="Layer_1" xmlns="http://www.w3.org/2000/svg" xmlns:xlink="http://www.w3.org/1999/xlink" x="0px" y="0px"
	 viewBox="0 0 512 512" style="enable-background:new 0 0 512 512;" xml:space="preserve">
<style type="text/css">
	.st0{fill:#2DC261;}
</style>
<g id="SVGRepo_iconCarrier">
	<path id="XMLID_2_" class="st0" d="M256.4,43.1c-117.1,0-212.4,95.3-212.4,212.4s95.3,212.4,212.4,212.4s212.4-95.3,212.4-212.4
		S373.5,43.1,256.4,43.1z M334.4,269.1l-103,103c-3.8,3.8-8.7,5.7-13.7,5.7s-9.9-1.9-13.7-5.7c-7.5-7.5-7.5-19.8,0-27.3l89.3-89.3
		l-89.3-89.3c-7.5-7.5-7.5-19.8,0-27.3c7.5-7.5,19.8-7.5,27.3,0l103,103c3.6,3.6,5.7,8.5,5.7,13.7
		C340.1,260.6,338.1,265.5,334.4,269.1z"/>
</g>
</svg>
