<?xml version="1.0" encoding="utf-8"?>
<!-- Generator: Adobe Illustrator 28.0.0, SVG Export Plug-In . SVG Version: 6.00 Build 0)  -->
<svg version="1.1" id="Layer_1" xmlns="http://www.w3.org/2000/svg" xmlns:xlink="http://www.w3.org/1999/xlink" x="0px" y="0px"
	 viewBox="0 0 48 48" style="enable-background:new 0 0 48 48;" xml:space="preserve">
<style type="text/css">
	.st0{fill-rule:evenodd;clip-rule:evenodd;}
	.st1{fill-rule:evenodd;clip-rule:evenodd;fill:#FEFEFE;}
	.st2{fill-rule:evenodd;clip-rule:evenodd;fill:#E25103;stroke:#000000;stroke-width:0.5;stroke-miterlimit:10;}
	.st3{fill-rule:evenodd;clip-rule:evenodd;fill:#3A8AE5;stroke:#000000;stroke-width:0.5;stroke-miterlimit:10;}
	.st4{fill-rule:evenodd;clip-rule:evenodd;fill:#16A303;stroke:#000000;stroke-width:0.5;stroke-miterlimit:10;}
</style>
<script  xmlns=""></script>
<rect x="-0.1" y="5.2" transform="matrix(0.9688 -0.2477 0.2477 0.9688 -1.1637 5.6205)" class="st0" width="43.8" height="4.4"/>
<polygon class="st1" points="10.2,12.4 8,8.9 0.7,10.8 2.9,14.3 "/>
<polygon class="st1" points="11.6,8 13.8,11.5 21.1,9.6 18.9,6.2 "/>
<polygon class="st1" points="22.4,5.3 24.6,8.7 31.9,6.8 29.7,3.4 "/>
<polygon class="st1" points="33.3,2.5 35.5,5.9 42.8,4.1 40.6,0.6 "/>
<path class="st0" d="M41.9,11.6l-31,3.3l-0.8-1.1l-1.6-2.2L8,10.8l-0.4,0l-6.9,0.7l0.6,5.9l0.3,3.3L1.7,21L2,21.4l2.5,24
	c0.2,1.7,1.7,2.9,3.3,2.7l37.4-3.9c1.7-0.2,2.9-1.7,2.7-3.3l-2.8-26.5l-0.3-2.6c0-0.2-0.2-0.4-0.5-0.4L41.9,11.6L41.9,11.6z
	 M3.8,16.7c0.7-0.1,1.4,0.5,1.5,1.2c0.1,0.7-0.5,1.4-1.2,1.5c-0.7,0.1-1.4-0.5-1.5-1.2C2.6,17.4,3.1,16.8,3.8,16.7L3.8,16.7z
	 M8.7,16.2c0.7-0.1,1.4,0.5,1.5,1.2S9.7,18.8,9,18.8c-0.7,0.1-1.4-0.5-1.5-1.2S8,16.3,8.7,16.2L8.7,16.2z M3.3,12.1
	c0.7-0.1,1.4,0.5,1.5,1.2c0.1,0.7-0.5,1.4-1.2,1.5c-0.7,0.1-1.4-0.5-1.5-1.2C2.1,12.8,2.6,12.1,3.3,12.1L3.3,12.1z M6.7,21.1
	l34.4-3.6c1.4-0.1,2.6,0.9,2.8,2.3L46,39.4c0.1,1.4-0.9,2.6-2.3,2.8L9.3,45.8c-1.4,0.1-2.6-0.9-2.8-2.3L4.5,23.9
	C4.3,22.6,5.3,21.3,6.7,21.1L6.7,21.1z"/>
<polygon class="st1" points="14.9,14.7 21.5,14 20.2,18.8 13.6,19.5 "/>
<polygon class="st1" points="26.3,13.5 33,12.8 31.7,17.6 25,18.3 "/>
<polygon class="st1" points="37.8,12.3 44.4,11.6 43.1,16.4 36.5,17.1 "/>
<path class="st1" d="M3.6,14.7c0.7-0.1,1.3-0.7,1.2-1.5c-0.1-0.7-0.7-1.3-1.5-1.2c-0.7,0.1-1.3,0.7-1.2,1.5
	C2.2,14.2,2.9,14.8,3.6,14.7L3.6,14.7z M3.8,16.7c-0.7,0.1-1.3,0.7-1.2,1.5c0.1,0.7,0.7,1.3,1.5,1.2c0.7-0.1,1.3-0.7,1.2-1.5
	C5.2,17.2,4.6,16.6,3.8,16.7L3.8,16.7z M8.7,16.2c-0.7,0.1-1.3,0.7-1.2,1.5c0.1,0.7,0.7,1.3,1.5,1.2c0.7-0.1,1.3-0.7,1.2-1.5
	C10.1,16.6,9.4,16.1,8.7,16.2L8.7,16.2z"/>
<path class="st1" d="M41.2,17.5L6.7,21.1c-1.4,0.1-2.4,1.4-2.3,2.8l2.1,19.6c0.1,1.4,1.4,2.4,2.8,2.3l34.4-3.6
	c1.4-0.1,2.4-1.4,2.3-2.8L44,19.8C43.8,18.4,42.6,17.4,41.2,17.5L41.2,17.5z"/>
<path class="st2" d="M17.5,30.4c0.6-1.5,0.1-3.7-1.3-4.6c-0.5-0.3-0.9-0.5-1.5-0.6c-1.7-0.4-3.4,0-4.6,0.8c-0.3,0.2-0.5,0.3-0.8,0.6
	c-0.5,0.5-0.5,0.4,0.2,1.2l0.8,1c0.3,0.3,0.3,0,0.8-0.5c0.2-0.2,0.5-0.4,0.7-0.5c0.6-0.2,1.4-0.3,2,0c0.9,0.4,1.1,1.8,0.7,2.5
	c-0.2,0.4-0.5,0.5-0.6,0.6c-0.1,0-0.2,0.1-0.3,0.1c-0.1,0-0.3,0.1-0.4,0.1c-0.2,0.1-0.5,0.1-0.8,0.1c-0.4,0-0.2,0.2-0.1,1.3
	c0,0.2,0,0.4,0.1,0.6c0.1,0.7,0,0.6,0.9,0.5c0.3,0,0.6,0,0.8,0c0.5,0.1,0.9,0.3,1.1,0.6c0.7,0.6,0.9,1.8,0.6,2.6
	c-0.4,1.3-2.3,1.6-3.5,1.1c-0.6-0.2-0.7-0.4-1.1-0.7l-0.1-0.1c-0.2-0.1-0.2,0-0.3,0.2l-0.8,1.6c-0.3,0.6-0.4,0.5,0.6,1.1
	c1,0.6,2.2,0.7,3.4,0.6c2.3-0.2,4.2-1.2,4.8-3.4c0.4-1.4,0.1-3.3-1.1-4.4c-0.1-0.1-0.1-0.1-0.2-0.2c-0.1-0.1-0.3-0.2-0.4-0.3
	c-0.2-0.1-0.6-0.4-0.9-0.5l0.4-0.3C17.1,31.3,17.3,31,17.5,30.4L17.5,30.4z"/>
<path class="st3" d="M21.2,26.8c-0.1,0.2,0.3,0.3,0.5,0.5c0.1,0.1,0.2,0.1,0.3,0.2l1,0.6c0.5,0.3,0.3-0.2,1-1
	c0.3-0.4,0.7-0.7,1.4-0.8c0.6-0.1,1.4-0.1,1.8,0.3c0.9,0.7,0.5,2.4,0.1,3.4c-0.4,0.9-1.3,2.6-1.8,3.6c-0.6,1.1-1.3,2.5-1.9,3.5
	c-0.2,0.3-1.1,1.9-1.1,2.1c0,0.2,0,0.3,0.1,0.4c0.1,0.1,0.2,0.1,0.4,0.1l5.8-0.6c0.5-0.1,3.7-0.3,3.9-0.5c0-0.3-0.2-1.8-0.2-2.3
	c0-0.1,0-0.2-0.1-0.3c-0.1,0-4.8,0.5-5.4,0.6c0.1-0.2,2.5-4.8,2.9-5.7c0.4-0.9,0.9-2.3,0.8-3.5c-0.1-1.3-0.7-2.2-1.5-2.8
	c-1.3-0.9-3.6-1.1-5.2-0.5c-0.3,0.1-0.5,0.2-0.7,0.4c-0.6,0.3-1.3,1-1.6,1.6C21.4,26.3,21.3,26.6,21.2,26.8L21.2,26.8z"/>
<path class="st4" d="M37.4,24.3L36.6,25l-1.5,1.1c-0.1,0-0.3,0.1-0.3,0.2c0,0.1,0.1,1.2,0.1,1.4c0,0.2,0,0.5,0.1,0.7l0.1,0.5
	c0.1,0.3,0.3,0,0.5,0l0.9-0.7c0.1,0,0.1-0.1,0.2-0.1l1-0.8c0.1-0.1,0.3-0.2,0.4-0.2c0.2,1.8,0.4,3.5,0.6,5.3L39,37
	c0,0.1,0,0.2,0,0.3c0,0.3,0,0.2,0.1,0.3c0.1,0.1,1.2-0.1,1.5-0.1c0.2,0,1.3-0.1,1.4-0.2c0.1-0.2-0.3-3.5-0.4-4l-0.9-7.9
	c-0.1-0.7-0.1-1.3-0.2-2c0-0.3-0.1-0.7-0.1-1c0-0.2,0-0.3-0.3-0.3c-0.1,0-0.4,0-0.5,0.1c-0.1,0-0.5,0-0.6,0.1c0,0,0,0,0,0L39,22.4
	c0,0.1-0.1,0.1-0.1,0.1l-0.7,0.9c-0.2,0.2-0.3,0.4-0.5,0.5C37.6,24.1,37.5,24.2,37.4,24.3L37.4,24.3z"/>
</svg>
