<?xml version="1.0" encoding="utf-8"?>
<!-- Generator: Adobe Illustrator 28.0.0, SVG Export Plug-In . SVG Version: 6.00 Build 0)  -->
<svg version="1.1" id="Layer_1" xmlns="http://www.w3.org/2000/svg" xmlns:xlink="http://www.w3.org/1999/xlink" x="0px" y="0px"
	 viewBox="0 0 24 24" style="enable-background:new 0 0 24 24;" xml:space="preserve">
<style type="text/css">
	.st0{fill:#1F1F1F;}
	.st1{fill:#121212;}
	.st2{fill:#2B2B2B;}
	.st3{fill:#151515;}
	.st4{fill:#1E1E1E;}
	.st5{fill:#282828;}
	.st6{fill:#242424;}
	.st7{fill:#202020;}
	.st8{fill:#FBFBFB;}
	.st9{fill:#F7F7F7;}
	.st10{fill:#0B0B0B;}
	.st11{fill:#FEFEFE;}
	.st12{fill:#424242;}
	.st13{fill:#131313;}
	.st14{fill:#111111;}
	.st15{fill:#3D3D3D;}
	.st16{fill:#191919;}
	.st17{fill:#353535;}
	.st18{fill:#262626;}
	.st19{fill:#C3C3C3;}
	.st20{fill:#2A2A2A;}
	.st21{fill:#C6C6C6;}
	.st22{fill:#DCDCDC;}
	.st23{fill:#868686;}
	.st24{fill:#484848;}
	.st25{fill:#2C2C2C;}
	.st26{fill:#C9C9C9;}
	.st27{fill:#525252;}
	.st28{fill:#ABABAB;}
	.st29{fill:#B1B1B1;}
	.st30{fill:#B7B7B7;}
	.st31{fill:#707070;}
	.st32{fill:#414141;}
	.st33{fill:#EBEBEB;}
	.st34{fill:#A0A0A0;}
	.st35{fill:#575757;}
	.st36{fill:#D7D7D7;}
	.st37{fill:#898989;}
	.st38{fill:#D6D6D6;}
	.st39{fill:#757575;}
	.st40{fill:#8F8F8F;}
	.st41{fill:#C8C8C8;}
	.st42{fill:#060607;}
	.st43{fill:#080605;}
	.st44{fill:#1D201D;}
	.st45{fill:#E0E0E0;}
	.st46{fill:#989898;}
	.st47{fill:#AEAEAE;}
	.st48{fill:#B0B0B0;}
	.st49{fill:#D4D4D4;}
	.st50{fill:#D1D1D1;}
	.st51{fill:#A3A3A3;}
	.st52{fill:#B2B2B2;}
	.st53{fill:#979797;}
	.st54{fill:#6E6E6E;}
	.st55{fill:#F4F4F4;}
	.st56{fill:#464646;}
	.st57{fill:#7B7B7B;}
	.st58{fill:#F1F1F1;}
	.st59{fill:#9E9E9E;}
	.st60{fill:#3A3A3A;}
	.st61{fill:#717171;}
	.st62{fill:#F0F0F0;}
	.st63{fill:#393939;}
	.st64{fill:#6D6D6D;}
	.st65{fill:#5B5B5B;}
	.st66{fill:#6A6A6A;}
	.st67{fill:#3988E4;}
	.st68{fill:#5E9EE7;}
	.st69{fill:#6CA7EB;}
	.st70{fill:#7FB3EE;}
	.st71{fill:#E15103;}
	.st72{fill:#EA854F;}
	.st73{fill:#9B9B9B;}
	.st74{fill:#E5641E;}
	.st75{fill:#DF7A43;}
	.st76{fill:#16A203;}
	.st77{fill:#5C9EE9;}
	.st78{fill:#87B8F0;}
	.st79{fill:#BDD8F6;}
	.st80{fill:#F5C1A6;}
	.st81{fill:#E67132;}
	.st82{fill:#EFA177;}
	.st83{fill:#F6CAB2;}
	.st84{fill:#85CF7B;}
	.st85{fill:#A5DC9E;}
	.st86{fill:#B7E3B1;}
</style>
<g>
	<path d="M23.9,21.2c-0.2,0.5-0.5,0.8-1.1,0.9c-3,0.3-6,0.6-8.9,0.9c-3.3,0.3-6.6,0.7-9.9,1c-0.7,0.1-1.3-0.2-1.5-0.9
		c0-0.1-0.1-0.2,0.1-0.2c0.1,0,0.1-0.1,0.1-0.2c0-0.1-0.1-1-0.2-1.2c0,0.1,0,0.2,0,0.2c0,0.1,0,0.1-0.2,0.1c0-0.5-0.1-1-0.1-1.4
		c0-0.5-0.1-1.1-0.2-1.6c-0.1-0.6-0.1-1.1-0.2-1.7c0-0.3-0.1-0.6-0.1-0.9c0.1,0,0.1,0.1,0.2,0.1c0-0.5,0-1.1-0.1-1.6
		c-0.1-0.4-0.1-0.7-0.1-1.1c-0.1-0.9-0.2-1.7-0.3-2.6c0-0.1,0-0.1,0-0.2c-0.1,0-0.2,0.1-0.3-0.1c-0.1-0.1-0.2-0.3-0.3-0.4
		c-0.1-0.1-0.1-0.3,0-0.4C0.9,10,0.9,9.9,0.9,9.8C0.8,9.2,0.8,8.6,0.7,8.1c0-0.2,0.1-0.5,0-0.7c0,0,0-0.1,0-0.1c0-0.2,0-0.3-0.1-0.5
		C0.6,6.6,0.6,6.5,0.6,6.3c0-0.1,0-0.2,0.2-0.2c0,0,0.1,0,0.1,0c0.3,0,0.3,0,0.2,0.3C1,6.7,1,7.1,1.3,7.3c0.2,0.2,0.6,0.3,0.9,0.1
		c0.3-0.2,0.5-0.5,0.3-0.9c0-0.1-0.1-0.1-0.1-0.2C2.3,6.1,2.3,6.1,2.6,6c0.4,0,0.7-0.1,1.1-0.1C3.9,5.9,4,6,4.1,6.1
		c0.3,0.5,0.7,1,1.1,1.5c0.1,0.1,0.1,0.2,0.2,0.2c0.1,0.1,0.3,0.1,0.4,0C6.2,7.8,6.6,7.8,7,7.7c0.1,0,0.3,0,0.3,0.1
		c0,0.4-0.2,0.7-0.2,1.1C7,9.2,7,9.4,6.8,9.6C6.7,9.7,6.6,9.7,6.5,9.9C6.9,10,7.2,10,7.6,9.9C9,9.8,10.5,9.5,12,9.4
		c1.9-0.2,3.8-0.4,5.7-0.6c1-0.1,2.1-0.2,3.2-0.3c0.2,0,0.4,0,0.6,0.1c0.1,0,0.2,0.1,0.2,0c0-0.1-0.1-0.2-0.1-0.2
		c-0.1,0-0.1-0.1-0.2-0.1c-0.1-0.1-0.1-0.1,0-0.2c0.1-0.1,0.1-0.3,0.1-0.4c0.1-0.5,0.3-1,0.4-1.5c0,0,0,0,0.1,0
		c0.1-0.1,0.3-0.1,0.2-0.3c0-0.1,0-0.1,0.2,0l0,0c0.1,0.5,0.1,1.1,0.2,1.6c0.1,0.5,0.1,1.1,0.2,1.6c0,0.4,0.1,0.8,0.1,1.2
		c0,0.4,0.1,0.8,0.1,1.2c0,0.4,0.1,0.7,0.1,1.1c0,0.4,0.1,0.9,0.1,1.3c0,0.4,0.1,0.8,0.1,1.1c0,0.4,0.1,0.8,0.1,1.2
		c0,0.4,0.1,0.7,0.1,1.1c0.1,0.4,0.1,0.9,0.1,1.3c0,0.3,0.1,0.6,0.1,1c0,0.4,0.1,0.7,0.1,1.1C24,20.7,24,21,23.9,21.2z"/>
	<path d="M14.7,1.7c0.1,0,0.1-0.1,0.2,0c0.1,0,0.3-0.1,0.2,0.1c0,0.1,0.1,0.1,0.1,0.1c0.2,0,0.4,0,0.6-0.1c0.3-0.1,0.6-0.2,0.9-0.3
		c0.2,0,0.3-0.1,0.5-0.1c0,0,0,0,0.1,0c0.4,0.4,0.6,0.9,1,1.3c0,0,0,0.1,0.1,0.1c0,0,0.1,0.1,0.1,0.1c0.1,0.2-0.1,0.1-0.1,0.2
		c-0.7,0.2-1.4,0.4-2.1,0.5c-0.2,0.1-0.2-0.1-0.2-0.2c-0.1-0.1-0.1-0.1-0.2-0.2c-0.3-0.4-0.6-0.8-0.9-1.2c0-0.1-0.1-0.1-0.1-0.2
		c0,0,0-0.1-0.1-0.1C14.6,1.8,14.6,1.7,14.7,1.7z"/>
	<path d="M7.2,6c-0.7,0.2-1.4,0.4-2,0.5c-0.1,0-0.2,0-0.3,0.1c-0.1,0-0.1,0-0.1-0.1C4.5,6.4,4.4,6.1,4.2,5.9c0-0.1-0.1-0.1,0-0.2
		c0.1,0,0.1,0,0.2,0.1C4.5,6,4.6,6.1,4.7,6.2C4.6,6.1,4.4,5.8,4.3,5.7C4.2,5.6,4.1,5.4,4,5.3C3.9,5.2,3.8,5.1,3.8,4.9
		c0-0.1,0.2-0.1,0.3-0.2c0.1,0,0.2-0.1,0.4-0.1c0.1,0,0.2-0.1,0.3-0.1c0.2,0,0.4-0.1,0.6-0.1c0,0,0,0,0.1,0c0.1,0,0.2-0.1,0.3-0.1
		c0.2,0,0.3-0.1,0.5-0.1c0,0,0,0,0.1,0c0,0,0.1,0.1,0.1,0.1c0.3,0.4,0.6,0.8,0.8,1.1c0,0.1,0.1,0.1,0.1,0.2c0,0.1,0.1,0.1,0.1,0.2
		C7.4,6,7.2,5.9,7.2,6z"/>
	<path d="M12.8,4.5c-0.7,0.2-1.4,0.4-2.1,0.5c-0.2,0.1-0.3,0-0.3-0.1c0,0,0-0.1-0.1-0.1c0-0.1-0.1-0.1-0.1-0.2
		c-0.2-0.3-0.5-0.6-0.7-1C9.4,3.6,9.3,3.6,9.3,3.4c0.1-0.2,0.2-0.2,0.4-0.2c0.5-0.1,1-0.2,1.5-0.4c0.1-0.1,0.2-0.1,0.4-0.1
		c0,0,0.1,0,0.1,0c0.3,0.4,0.6,0.8,0.9,1.3c0,0,0,0.1,0.1,0.1C12.8,4.3,12.9,4.4,12.8,4.5z"/>
	<path class="st0" d="M11.3,2.9c-0.4,0.2-0.9,0.3-1.4,0.4c-0.2,0-0.4,0-0.6,0.2c0,0,0,0-0.1,0c0,0-0.1-0.1-0.1-0.1
		c-0.1-0.1-0.2,0-0.2,0C8.1,3.6,7.2,3.9,6.3,4.1c-0.1,0-0.2,0-0.2,0.2C5.9,4.3,5.8,4.4,5.6,4.4c0-0.1,0-0.1-0.1-0.1
		c-0.2,0-0.3,0-0.5,0.1C4.8,4.5,4.6,4.5,4.4,4.5c-0.1,0-0.2,0-0.3,0C3,4.9,1.8,5.2,0.6,5.5c0,0-0.1,0-0.1,0c-0.1,0-0.2-0.1-0.2-0.1
		C1,5.2,1.8,5,2.6,4.8c3.9-1,7.9-2,11.8-3c0.1,0,0.2-0.1,0.3-0.1c0,0,0,0.1,0,0.1c-0.1,0.1-0.2,0.1-0.3,0.1
		c-0.9,0.2-1.7,0.4-2.6,0.7c-0.6,0.2-1.1,0.3-1.7,0.5c0.3,0,0.5-0.1,0.8-0.2C11.1,2.9,11.2,2.8,11.3,2.9z"/>
	<path class="st1" d="M0.3,5.4c0.1,0,0.2,0,0.2,0.1c0.4,0.1,0.8,0.1,1.2,0.1c0.1,0,0.1,0,0.2,0c0.7,0,1.4-0.1,2.2,0
		c0.1,0,0.2,0.1,0.3,0.2c0.2,0.2,0.4,0.5,0.5,0.8C4.6,6.3,4.5,6,4.2,5.8c0.2,0.3,0.4,0.6,0.6,0.9c0.2,0.3,0.4,0.6,0.6,0.9
		c0.1,0.1,0.3-0.1,0.4,0.1C5.6,7.7,5.5,7.7,5.3,7.5C5,7.2,4.8,6.9,4.6,6.6C4.4,6.4,4.3,6.2,4.1,6C4,5.8,3.9,5.7,3.7,5.7
		c-0.5,0-0.9,0.1-1.4,0.1c-0.3,0-0.5,0-0.8,0c-0.1,0-0.2,0-0.3,0c-0.2,0-0.4,0-0.6,0c-0.1,0-0.2,0.1-0.2,0.3C0.6,6.5,0.5,7,0.6,7.4
		c0.1,0,0.1-0.1,0.1-0.1c0.1,0.1,0.1,0.2,0,0.3C0.7,8.2,0.9,8.8,1,9.5c0,0.2,0,0.3,0,0.5c0,0.1,0,0.2-0.1,0.2
		c-0.2,0.1-0.1,0.2-0.1,0.3c-0.1-0.1-0.1-0.2-0.1-0.4C0.6,9.1,0.5,8.2,0.4,7.3C0.3,6.8,0.1,6.3,0,5.7C0,5.5,0,5.4,0.3,5.4z"/>
	<path class="st2" d="M5.9,7.6c-0.1-0.1-0.3,0-0.3-0.1C6.9,7.3,8.3,7.2,9.7,7c4-0.4,8-0.9,12-1.3c0.2,0,0.3,0,0.5,0
		c0.1,0,0.2,0,0.2,0.1c0,0-0.2-0.2-0.1,0.1c0.1,0.2-0.1,0.2-0.3,0.3c0,0,0,0,0-0.1C22,6.1,22,6,22,6c-0.1-0.1-0.2,0-0.3,0
		c-0.5,0.1-1.1,0.1-1.6,0.2c-0.7,0.1-1.4,0.2-2.2,0.2c-0.7,0.1-1.4,0.2-2.2,0.2c-0.7,0.1-1.3,0.1-2,0.2c-0.6,0.1-1.1,0.1-1.7,0.2
		c-0.9,0.1-1.8,0.2-2.6,0.3C8.9,7.3,8.4,7.4,7.8,7.4c-0.5,0.1-1,0.1-1.6,0.2C6.1,7.6,6,7.7,5.9,7.6z"/>
	<path d="M20.5,0.2C20.5,0.2,20.5,0.2,20.5,0.2c1-0.3,0.8-0.4,1,0.5c0.1,0.4,0.2,0.8,0.3,1.3c0,0.1,0.1,0.3-0.1,0.3
		c-0.1,0-0.2,0-0.3,0c0-0.1-0.1-0.1-0.1-0.2c0-0.1-0.1-0.1-0.1-0.2c-0.3-0.4-0.6-0.8-0.9-1.2c0-0.1-0.1-0.1-0.1-0.2
		c-0.1-0.1-0.1-0.2,0.1-0.2C20.4,0.2,20.5,0.2,20.5,0.2z"/>
	<path class="st3" d="M1.1,10.9c0.1,0,0.1,0.1,0.2,0c0.2-0.2,0.2,0,0.2,0.1c-0.1,0-0.1,0.1-0.1,0.2c0.1,0.8,0.2,1.6,0.3,2.4
		c0.1,0.6,0.1,1.2,0.2,1.9c0-0.3-0.1-0.5,0-0.8C2,15,2,15.2,2,15.4c0.1,0.3,0.1,0.7,0.1,1c0,0.1,0,0.2-0.1,0.2
		c-0.1,0-0.1-0.1-0.1-0.2c0,0,0-0.1-0.1-0.1c0,0.3,0,0.5,0,0.8c0.1,1.2,0.3,2.3,0.4,3.4c0,0.4,0.1,0.9,0.1,1.3
		c0.1,0.1,0.1,0.2,0,0.2c0-0.4-0.1-0.7-0.1-1.1C1.8,17.7,1.5,14.3,1.1,10.9z"/>
	<path class="st4" d="M20.5,0.2c0,0.1-0.1,0.1-0.2,0.1c-0.2,0-0.1,0.1-0.1,0.2c-0.1,0.1-0.2,0.1-0.3,0.1c-0.8,0.2-1.7,0.4-2.5,0.6
		c-0.1,0-0.3,0-0.3,0.2c-0.2,0-0.3,0.2-0.5,0.1c0,0,0.1-0.2-0.1-0.1c-0.4,0.1-0.8,0.2-1.1,0.3c0.1,0,0.2,0,0.3,0.1
		c-0.2,0.1-0.5,0.1-0.7,0.1c-0.1,0-0.2-0.1-0.1-0.1c0.2-0.2,0-0.1-0.1-0.2c0.2-0.1,0.5-0.1,0.8-0.2c1.6-0.4,3.1-0.8,4.7-1.2
		C20.4,0.2,20.5,0.2,20.5,0.2z"/>
	<path class="st2" d="M23.9,21.2c0.1-1.1-0.2-2.1-0.2-3.2c-0.1-0.7-0.1-1.4-0.2-2.1c-0.1-0.9-0.2-1.8-0.3-2.7
		c-0.1-0.7-0.1-1.4-0.2-2.1c-0.1-0.9-0.2-1.7-0.3-2.6c-0.1-0.7-0.1-1.4-0.2-2.1c0-0.2-0.1-0.4,0-0.6c0.1,0.3,0.1,0.7,0.1,1
		c0.5,4.5,1,9.1,1.5,13.6C24,20.7,24,20.9,23.9,21.2z"/>
	<path class="st5" d="M12.8,4.5c0.1-0.1-0.1-0.2-0.1-0.3c1-0.2,2-0.5,3-0.7c0.1,0,0.2,0,0.2,0c0.1,0,0.1,0.2,0.2,0.2
		c-0.7,0.2-1.4,0.4-2.1,0.5C13.6,4.3,13.2,4.5,12.8,4.5z"/>
	<path class="st6" d="M10.4,4.9c0.1,0.1,0.1,0.2,0.3,0.2c-0.7,0.2-1.4,0.4-2,0.5C8.1,5.8,7.7,5.9,7.2,6c0-0.1,0.2-0.1,0.1-0.2
		c0.1-0.1,0.2-0.1,0.3-0.2C8.4,5.4,9.2,5.2,10,5C10.1,5,10.2,4.9,10.4,4.9z"/>
	<path class="st7" d="M21.5,2.1c0.1,0.1,0.2,0.1,0.3,0.1c-0.5,0.2-1,0.3-1.6,0.4c-0.6,0.2-1.3,0.4-1.9,0.5c0-0.1,0.2-0.1,0.1-0.2
		c0.1-0.1,0.1-0.1,0.2-0.1c0.9-0.2,1.8-0.5,2.7-0.7C21.3,2.1,21.4,2.1,21.5,2.1z"/>
	<path class="st3" d="M2.3,22.1c0-0.1,0-0.2,0-0.2c0.2-0.1,0.1-0.2,0.1-0.4c0-0.1,0-0.1,0.1-0.2c0.1,0,0.1,0.1,0.1,0.1
		c0.1,0.4,0.1,0.9,0.2,1.3c0,0.1,0,0.3-0.2,0.2c-0.1,0-0.1,0-0.1,0.2C2.3,22.8,2.3,22.5,2.3,22.1z"/>
	<path class="st8" d="M3.7,22.4c-0.3-0.3-0.3-0.6-0.3-1c-0.2-1.5-0.3-3-0.5-4.5c-0.2-1.6-0.3-3.3-0.5-4.9c-0.1-0.7,0.4-1.4,1.1-1.4
		c1.2-0.1,2.3-0.2,3.5-0.4c1-0.1,2-0.2,3.1-0.3c0.9-0.1,1.7-0.2,2.6-0.3c1-0.1,2-0.2,3.1-0.3c0.9-0.1,1.7-0.2,2.6-0.3
		c0.7-0.1,1.4-0.1,2.1-0.2c0.6-0.1,1.2,0.2,1.4,0.7c0.2,0.8,0.2,1.7,0.3,2.5c0.1,0.7,0.1,1.4,0.2,2.1c0,0.2,0,0.5,0,0.7
		c0,0.1,0,0.2-0.1,0.2c-0.2,0.1-0.2,0.2-0.2,0.4c0,0.2-0.1,0.3-0.3,0.4c-0.3,0-0.3,0.1-0.3,0.4c0,0.5-0.1,1.1,0,1.6
		c0,0.2,0,0.4-0.1,0.6c0,0.1,0,0.2-0.2,0.2c-0.1,0-0.1-0.1-0.1-0.2c-0.1-0.4-0.1-0.8-0.2-1.3c-0.1-1.1-0.3-2.2-0.4-3.3
		c-0.1-0.7-0.2-1.3-0.2-2c0-0.2-0.1-0.4-0.2-0.6c-0.3-0.2-0.7-0.2-0.9,0.1c-0.5,0.7-1.2,1.3-1.9,1.8c-0.1,0.1-0.2,0.2-0.2,0.3
		c0.1,0.4,0.1,0.8,0.1,1.2c0.1,0.2,0.2,0.3,0.4,0.2c0.2-0.1,0.3-0.3,0.5-0.4c0.1-0.1,0.2-0.2,0.4-0.1c0.2,0.1,0.1,0.3,0.1,0.4
		c-0.1,0.3,0,0.5,0,0.8c0.1,0.9,0.2,1.8,0.2,2.7c0,0.2,0,0.4,0.1,0.7c0,0.3,0.3,0.5,0.7,0.5c0.2,0,0.4,0,0.5,0c0.1,0,0.1,0,0.1,0.1
		c0,0.1-0.1,0.1-0.1,0.1c-0.2,0.1-0.5,0.1-0.7,0.2c-0.4,0.1-0.8,0.2-1.3,0.3c0.3,0,0.6,0,0.9,0c0.8-0.1,1.6-0.2,2.3-0.2
		c0.4,0,0.8-0.2,1.1-0.5c0.1-0.1,0.1-0.2,0.2-0.1c0.1,0,0.1,0.2,0.1,0.3c0,0.7-0.5,1.3-1.2,1.4c-0.8,0.1-1.6,0.2-2.4,0.3
		c-0.7,0.1-1.4,0.2-2.1,0.2c-0.7,0.1-1.4,0.1-2.1,0.2c-0.7,0.1-1.4,0.2-2.2,0.2c-0.9,0.1-1.7,0.2-2.6,0.3c-0.5,0-1.1,0.1-1.6,0.2
		c-0.4,0-0.7,0.1-1.1,0.1c-0.6,0.1-1.1,0.2-1.7,0.2c-0.5,0-1,0.2-1.5,0.1C4.2,22.6,4,22.5,3.7,22.4C3.7,22.4,3.7,22.4,3.7,22.4z"/>
	<path class="st9" d="M19.9,11.3c0.3,0.2,0.3,0.6,0.3,0.9c0.1,0.9,0.2,1.7,0.3,2.6c0.1,0.8,0.2,1.6,0.3,2.4c0.1,0.5,0.1,0.9,0.2,1.4
		c0,0,0,0,0.1,0.1c0.1-0.3,0.2-0.6,0.1-0.9c-0.1-0.6,0-1.2,0-1.7c0-0.2,0.2-0.3,0.4-0.3c0.2,0,0.3-0.1,0.2-0.3c0-0.1,0-0.3,0.1-0.4
		c0,0,0-0.1,0.1-0.1c0.4,0,0.2-0.2,0.2-0.4c0-0.5,0-0.9-0.1-1.4c0-0.6-0.1-1.2-0.2-1.8c0-0.4-0.1-0.8-0.1-1.1c0-0.3-0.2-0.5-0.1-0.8
		c0.2,0.3,0.2,0.6,0.2,0.9c0.2,1.5,0.3,3,0.5,4.5c0,0.4,0.1,0.8,0.1,1.2c0.1,0.3,0.1,0.6,0.2,0.9c0.1,0.8,0.2,1.6,0.3,2.5
		c0,0.2,0,0.3,0,0.5c0,0,0,0.1,0,0.1c-0.2,0.7-0.7,1-1.3,1c-0.5,0-1.1,0.1-1.6,0.2c-1.1,0.1-2.2,0.2-3.3,0.4
		c-1.3,0.1-2.6,0.3-3.9,0.4c-0.4,0-0.7,0.1-1.1,0.1c-0.2,0-0.4-0.1-0.6,0c-0.9,0.1-1.7,0.2-2.6,0.3c-0.6,0.1-1.3,0.1-1.9,0.2
		c-0.1,0-0.2,0-0.3,0c-0.1,0.1-0.3,0.1-0.4,0.1c-0.4,0-0.7,0.2-1.1,0.1c-0.3,0-0.6,0-0.9-0.2c-0.1-0.1-0.2-0.1-0.2-0.3
		c0.1,0,0.3,0,0.4,0.1c0.3,0.2,0.6,0.2,0.9,0.2c0.5-0.1,1.1-0.1,1.6-0.2c0.6-0.1,1.2-0.1,1.7-0.2c0.5-0.1,1-0.1,1.6-0.2
		c0.7-0.1,1.5-0.2,2.2-0.2c0.5-0.1,1.1-0.1,1.6-0.2c0.5-0.1,1.1-0.1,1.6-0.2c0.5-0.1,1.1-0.1,1.6-0.2c0.6-0.1,1.1-0.1,1.7-0.2
		c0.5-0.1,1.1-0.1,1.6-0.2c0.5-0.1,1.1-0.1,1.6-0.2c0.6-0.2,1-0.7,0.9-1.3c0-0.1,0-0.1-0.1-0.2c-0.1,0-0.1,0-0.1,0.1
		c-0.3,0.4-0.7,0.5-1.1,0.6c-0.8,0.1-1.5,0.2-2.3,0.2c-0.3,0-0.6,0-0.9,0.1c-0.1,0-0.3,0-0.3-0.1c0-0.1,0.2-0.1,0.3-0.1
		c0.5-0.1,1-0.2,1.5-0.3c0.2,0,0.4-0.1,0.5-0.2c-0.2,0-0.4,0-0.6,0c-0.5,0.1-0.8-0.2-0.8-0.6c-0.1-1-0.1-1.9-0.2-2.9
		c0-0.2-0.1-0.5,0-0.7c0-0.2-0.1-0.4,0-0.5c0,0,0.1,0,0.1,0c0.1,0.2,0.1,0.4,0.1,0.6c0.1,0.7,0.2,1.4,0.2,2.2c0,0.5,0.1,1,0.2,1.4
		c0.1,0.2,0.2,0.2,0.4,0.3c0.3,0,0.6,0,0.9-0.1c0.3-0.1,0.4-0.2,0.3-0.5c-0.1-0.4-0.1-0.8-0.2-1.2c-0.1-0.7-0.2-1.4-0.2-2.1
		c-0.1-0.6-0.1-1.1-0.2-1.7C20,13,19.9,12.5,19.9,12C19.9,11.7,19.8,11.5,19.9,11.3z"/>
	<path class="st10" d="M21.4,8.1c-0.1,0.1-0.2,0.1,0,0.2c0.1,0,0.2,0.1,0.3,0.2c0,0.1,0.1,0.1,0.1,0.2c0,0.1-0.1,0.1-0.2,0.1
		c-0.1,0-0.3-0.1-0.4-0.1c-0.5,0-0.9,0-1.4,0.1c-0.5,0-0.9,0.1-1.4,0.1c-0.6,0-1.2,0.1-1.8,0.2c-0.6,0.1-1.2,0.1-1.8,0.2
		c-0.8,0.1-1.5,0.2-2.3,0.2c-0.5,0-1.1,0.1-1.6,0.2c-0.6,0.1-1.1,0.1-1.7,0.2c-0.3,0-0.7,0.1-1,0.1c-0.4,0-0.8,0.1-1.2,0.1
		c-0.2,0-0.3,0-0.5-0.1c0,0-0.1,0-0.1-0.1c0-0.1,0-0.1,0.1-0.1c0.1,0,0.3-0.1,0.4-0.2c0.5-0.1,1-0.1,1.5-0.2c0.5-0.1,1-0.1,1.5-0.2
		c0.1,0,0.2-0.1,0.3-0.1c0.5,0,1-0.1,1.5-0.1c0.3,0,0.6-0.1,0.9-0.1c0.7,0,1.4-0.1,2.1-0.2c0.2,0,0.4,0,0.6-0.1
		c0.2,0,0.4-0.1,0.6-0.1c0.8,0,1.6-0.1,2.4-0.2c1-0.1,2-0.2,3-0.3C21.3,8,21.4,8,21.4,8.1z"/>
	<path class="st11" d="M7,8.9c0.1-0.3,0.2-0.7,0.3-1c0-0.1,0-0.1,0-0.2c0.1-0.1,0.2-0.1,0.4-0.2c0.5-0.1,1.1-0.1,1.6-0.2
		c0.4,0,0.7-0.1,1.1-0.1c0.1,0,0.2,0,0.2,0.1c0,0.2,0,0.3-0.1,0.5c-0.1,0.4-0.2,0.7-0.3,1.1C10,9.3,9.6,9.3,9.3,9.3
		C8.7,9.4,8.1,9.4,7.5,9.5c-0.1,0-0.2,0-0.3,0C7,9.4,6.9,9.3,7,9.2C7,9.1,7,9,7,8.9z"/>
	<path class="st11" d="M21.9,6.2c-0.1,0.5-0.2,1-0.4,1.5c-0.1,0.3-0.3,0.4-0.6,0.4c-0.7,0.1-1.4,0.1-2.1,0.2c-0.4,0-0.5,0-0.5-0.3
		c0.1-0.5,0.2-0.9,0.4-1.4c0-0.1,0.1-0.1,0.1-0.1c0.5-0.1,1.1-0.1,1.6-0.2c0.4,0,0.8-0.1,1.2-0.1C21.7,6.1,21.8,6.1,21.9,6.2z"/>
	<path class="st12" d="M5.9,7.6C6.4,7.5,7,7.5,7.6,7.4c0.6-0.1,1.1-0.1,1.7-0.2C10,7.1,10.7,7.1,11.5,7c0.7-0.1,1.4-0.1,2.1-0.2
		c0.7-0.1,1.4-0.2,2.1-0.2c0.5-0.1,1.1-0.1,1.6-0.2c0.6-0.1,1.1-0.1,1.7-0.2C19.5,6.1,20,6.1,20.5,6c0.4,0,0.8-0.1,1.2-0.1
		c0.1,0,0.2,0,0.3,0c0.1,0,0.2,0.1,0,0.2C22,6,21.9,6,21.7,6.1c-0.6,0.1-1.1,0.1-1.7,0.2c-0.4,0-0.8,0.1-1.2,0.1c-0.1,0-0.2,0-0.3,0
		c-0.5,0-0.9,0.1-1.4,0.1c0,0-0.1,0-0.1,0c-0.3,0-0.7,0-1,0.1c-0.3,0.1-0.6,0.1-1,0.1c-0.6,0.1-1.2,0.2-1.8,0.2
		c-0.4,0-0.9,0-1.3,0.1c-0.2,0.1-0.3,0.1-0.5,0.1c-0.3,0-0.7,0-1,0.1c-0.4,0.1-0.8,0.1-1.2,0.1c-0.5,0.1-1,0.1-1.5,0.2
		c-0.1,0-0.1,0-0.2,0C7.1,7.6,6.6,7.7,6,7.7c0,0,0,0-0.1,0C5.7,7.8,5.5,7.7,5.4,7.8c0,0-0.1,0-0.1,0c-0.4-0.5-0.8-1-1.1-1.6
		C4,6.1,3.9,5.9,3.6,6C3.2,6,2.9,6,2.6,6C2.2,6.1,1.8,6.2,1.4,6.2c-0.2,0-0.4-0.1-0.6-0.1c-0.1,0-0.2,0-0.2,0
		c-0.1,0.1-0.2,0-0.2-0.1c-0.1-0.2,0-0.2,0.2-0.3c0.2-0.1,0.5,0,0.7,0c0.1,0,0.2,0,0.3,0c0.3-0.1,0.5,0,0.8,0c0.5,0,0.9,0,1.4-0.1
		c0.2,0,0.3,0.1,0.4,0.2c0.4,0.5,0.7,1,1.1,1.5C5.4,7.6,5.6,7.7,5.9,7.6z"/>
	<path class="st13" d="M11.1,22.1c0.5-0.1,1.1-0.1,1.7-0.2c1.5-0.2,3-0.3,4.5-0.5c0.9-0.1,1.8-0.2,2.7-0.3c0.1,0,0.3-0.1,0.4,0.1
		c0,0.1-0.1,0.1-0.2,0.1c-0.8,0.1-1.6,0.2-2.4,0.3c-0.6,0-1.1,0.1-1.7,0.2c-0.9,0.1-1.8,0.2-2.7,0.3c0,0,0.1,0,0.1,0.1
		c-0.2,0.1-0.4,0.1-0.6,0.1c-0.8,0.1-1.5,0.1-2.3,0.2c-0.3,0-0.6,0-0.9,0c0.5-0.2,1.1-0.2,1.6-0.4C11.3,22.1,11.2,22.1,11.1,22.1z"
		/>
	<path class="st14" d="M22.8,19.5c-0.1-1.1-0.3-2.3-0.4-3.4c0.1-0.1,0.1-0.2,0.2-0.3c0.1,0.2,0.1,0.4,0.2,0.6
		c0.1,0.9,0.2,1.8,0.3,2.7c0,0.4,0.1,0.7,0,1.1c-0.1-0.1,0-0.3-0.1-0.4C23,19.8,23,19.9,23,20c0,0,0,0,0,0.1c0,0-0.1,0.1-0.1,0.1
		c0,0,0-0.1,0-0.1c0,0,0,0,0,0C22.9,19.8,22.9,19.6,22.8,19.5z"/>
	<path class="st15" d="M17.7,21.5c0.7-0.1,1.3-0.1,2-0.2c0.2,0,0.4,0,0.6-0.1c0.2-0.1,0.4-0.1,0.6-0.1c0.4-0.1,0.8-0.1,1.2-0.1
		c0,0.1-0.1,0.1-0.2,0.2c-0.2,0.1-0.4,0.1-0.6,0.1c-0.5,0-0.9,0.1-1.4,0.1c-0.1,0,0,0.1,0,0c0.4-0.1,0.8-0.1,1.2-0.1
		c0.2,0,0.3-0.1,0.5,0.1c-0.4,0.1-0.8,0.1-1.1,0.1c-1,0.1-1.9,0.2-2.9,0.3c-0.4,0-0.8,0.1-1.2,0.1c-0.2,0.1-0.4,0-0.6,0.1
		c0,0-0.1,0-0.1,0c0-0.1,0-0.1,0.1-0.1c0.2,0,0.3-0.1,0.5-0.1C16.7,21.6,17.2,21.6,17.7,21.5z"/>
	<path class="st16" d="M0.8,6.1c0.6,0,1.2,0,1.7-0.1c-0.2,0-0.2,0.1-0.1,0.3c0.2,0.4,0.1,0.9-0.2,1.1C1.9,7.7,1.4,7.6,1.1,7.3
		C0.9,7.1,0.9,6.6,1,6.3C1.2,6.1,1.1,6.1,0.8,6.1C0.9,6.1,0.8,6.1,0.8,6.1C0.8,6.1,0.8,6.1,0.8,6.1C0.8,6.1,0.8,6.1,0.8,6.1z"/>
	<path class="st16" d="M1.2,9c0-0.5,0.3-0.8,0.8-0.8c0.5,0,0.9,0.4,0.9,0.8c0,0.5-0.4,0.8-0.9,0.8C1.5,9.9,1.2,9.5,1.2,9z"/>
	<path class="st16" d="M3.6,8.8C3.6,8.3,4,8,4.4,8c0.5,0,0.8,0.4,0.8,0.8c0,0.4-0.4,0.8-0.9,0.8C4,9.6,3.5,9.2,3.6,8.8z"/>
	<path class="st17" d="M1.9,14.8c0,0.3,0.1,0.7,0,1c-0.1,0-0.1-0.1-0.1-0.2c-0.1-0.7-0.2-1.4-0.3-2.1c-0.1-0.7-0.2-1.4-0.2-2.2
		c0-0.1,0-0.2,0-0.2c0-0.2,0.1-0.2,0.2-0.1c0.1,0.7,0.2,1.5,0.2,2.2c0,0.4,0.1,0.9,0.1,1.3C1.9,14.6,1.8,14.7,1.9,14.8z"/>
	<path class="st18" d="M17.7,21.5c-0.3,0.1-0.7,0.1-1,0.1c-0.3,0-0.6,0.1-0.8,0.1c-0.1,0-0.1,0-0.2,0.1c0.3-0.1,0.5-0.1,0.7-0.1
		c-0.2,0.1-0.4,0.1-0.6,0.1c-0.8,0.1-1.5,0.1-2.3,0.2c-0.1,0-0.2,0-0.3,0c0.2-0.2,0.4-0.2,0.6-0.2c0.7-0.1,1.5-0.2,2.2-0.3
		C16.6,21.6,17.2,21.5,17.7,21.5z"/>
	<path class="st19" d="M7,8.9c0,0.5,0,0.5,0.6,0.5c0.7-0.1,1.4-0.1,2-0.2c0.3,0,0.4-0.2,0.5-0.4c0.1,0.1,0,0.2-0.1,0.3
		c0,0.1-0.2,0.1-0.3,0.2C8.9,9.4,7.9,9.5,7,9.6c-0.1,0-0.1,0-0.2,0C6.9,9.4,6.9,9.1,7,8.9z"/>
	<path class="st20" d="M3.7,22.4c0.3,0.4,0.7,0.4,1.1,0.4c0,0.1-0.1,0-0.1,0.1c0.3-0.1,0.6-0.1,0.8-0.1c0.1,0,0.1,0,0.2,0
		c0.1,0,0.2,0,0.2,0.2c0,0.1-0.2,0-0.2,0.1c-0.4,0-0.7,0.1-1.1,0.1c-0.5,0-1.1-0.2-1.3-0.6c0-0.1-0.1-0.2,0-0.2
		c0.1-0.1,0.1,0.1,0.2,0.1C3.6,22.4,3.6,22.4,3.7,22.4C3.7,22.4,3.7,22.4,3.7,22.4z"/>
	<path class="st21" d="M18.3,7.9c0,0.2,0.1,0.3,0.3,0.3c0.5-0.1,1.1-0.1,1.6-0.2c0.2,0,0.4,0,0.6,0c0.3,0,0.5-0.1,0.7-0.3
		c0,0.1-0.1,0.3-0.1,0.4c-1,0.1-2.1,0.2-3.1,0.3c-0.1,0-0.1,0-0.2,0C18.1,8.2,18.2,8,18.3,7.9z"/>
	<path class="st22" d="M21.9,6.2c-0.6,0.1-1.1,0.1-1.7,0.2c-0.5,0.1-1,0.1-1.5,0.1c0,0,0,0,0-0.1c0.1-0.1,0.2-0.1,0.4-0.1
		c0.5,0,0.9-0.1,1.4-0.1c0.4,0,0.7-0.1,1.1-0.1C21.7,6.1,21.8,6,22,6C22,6,22,6.1,21.9,6.2C22,6.1,22,6.2,21.9,6.2L21.9,6.2
		L21.9,6.2z"/>
	<path class="st1" d="M5.7,23c0-0.1,0.2,0,0.2-0.1c0-0.1-0.1-0.1-0.2-0.1c-0.4,0-0.8,0.1-1.2,0c0.1-0.1,0.2,0,0.3-0.1
		c0.5,0,1-0.2,1.5-0.2c0.1,0.2,0.3,0,0.5,0.2C6.5,23,6.1,23,5.7,23z"/>
	<path class="st17" d="M0.8,6.1C0.8,6.1,0.8,6.1,0.8,6.1c-0.1,0-0.2,0.1-0.2,0.2c0,0.2,0,0.4,0.1,0.5c0.1,0.2,0,0.3,0.1,0.5
		c0,0,0,0,0,0c0,0,0,0.1,0,0.1c0,0.1,0,0.1-0.1,0.1c-0.1,0-0.1-0.1-0.1-0.1C0.5,7,0.5,6.5,0.4,6.1C0.5,6.2,0.7,6,0.8,6.1z"/>
	<path class="st23" d="M21.6,21.3c-0.2,0-0.3,0-0.5,0c-0.1,0-0.1-0.1,0-0.1c0.1,0,0.2,0,0.2,0c0.2-0.1,0.5,0,0.8-0.2
		c0.1-0.1,0.1-0.1,0.2-0.2c0.1,0,0.2-0.1,0.3-0.2c0.1-0.1,0.2-0.1,0.2,0.1c-0.1,0.1-0.2,0.2-0.3,0.3c0,0-0.1,0.1-0.1,0.1
		C22.2,21.2,21.9,21.3,21.6,21.3L21.6,21.3z"/>
	<path class="st2" d="M5.3,7.8c0,0,0.1,0,0.1,0c0.1-0.1,0.3-0.1,0.5-0.1c0.1,0,0.2,0,0.4,0c0.3,0,0.6-0.1,0.9-0.1
		c0.1,0,0.2,0,0.2,0.1c0,0.1,0,0.1-0.1,0.2c0-0.1-0.1-0.1-0.2-0.1c-0.4,0-0.8,0.1-1.2,0.1C5.6,7.9,5.4,8,5.3,7.8z"/>
	<path class="st24" d="M22.5,21c0.1-0.1,0.2-0.2,0.3-0.3c0.1-0.1,0.2-0.3,0.1-0.5c0-0.1,0.1-0.2,0.1-0.2l0,0c0,0,0-0.1,0.1-0.1
		c0.1,0,0.1,0.1,0.1,0.1c0,0.1,0,0.2,0,0.3c-0.1,0.3-0.2,0.5-0.5,0.7C22.6,21,22.6,21.1,22.5,21z"/>
	<path class="st25" d="M23.1,20.3c0-0.1,0-0.2,0-0.3c0-0.2-0.1-0.1-0.1,0c0-0.1,0-0.4,0.1-0.4c0.1,0,0,0.2,0.1,0.3
		C23.1,20.1,23.1,20.1,23.1,20.3C23.1,20.3,23.1,20.3,23.1,20.3z"/>
	<path class="st15" d="M21.6,21.3c0.2-0.1,0.5-0.1,0.7-0.2C22.2,21.3,21.9,21.3,21.6,21.3z"/>
	<path class="st1" d="M0.8,7.3C0.7,7.2,0.7,7,0.7,6.8C0.8,7,0.7,7.2,0.8,7.3z"/>
	<path class="st11" d="M20.4,0.6C20.7,1,21,1.4,21.3,1.8C21.3,2,21.2,2,21.1,2.1c-0.3,0.1-0.5,0.1-0.8,0.2c-0.6,0.1-1.2,0.3-1.8,0.5
		c-0.1,0-0.2,0.1-0.3,0c-0.3-0.4-0.7-0.9-1-1.3c0-0.1,0.1-0.1,0.2-0.1c0.9-0.2,1.8-0.5,2.7-0.7C20.2,0.5,20.3,0.5,20.4,0.6z"/>
	<path class="st11" d="M12.6,4.1c-0.3-0.4-0.6-0.8-0.9-1.3c0-0.2,0.1-0.2,0.2-0.2c0.6-0.2,1.2-0.3,1.8-0.5C14,2.1,14.2,2.1,14.5,2
		c0.1,0,0.2,0,0.3,0c0.3,0.4,0.6,0.8,0.9,1.3c0,0.1-0.1,0.2-0.2,0.2c-0.9,0.2-1.7,0.4-2.6,0.7C12.8,4.2,12.7,4.2,12.6,4.1z"/>
	<path class="st26" d="M12.6,4.1c0.9-0.2,1.9-0.5,2.8-0.7c0.1,0,0.2,0,0.3-0.1c0.1,0,0.1,0.1,0.2,0.2c-0.6,0.2-1.3,0.4-2,0.5
		c-0.3,0.1-0.6,0.2-0.9,0.2c-0.1,0-0.2,0.1-0.3,0C12.7,4.2,12.7,4.2,12.6,4.1z"/>
	<path class="st27" d="M11.3,2.9c-0.3,0.1-0.7,0.1-1,0.2c-0.1,0-0.1,0-0.2,0c0,0-0.1,0-0.1,0c0-0.1,0-0.1,0.1-0.1
		c0.2-0.1,0.4-0.1,0.6-0.2c1.3-0.3,2.5-0.7,3.8-1c0.1,0,0.1,0,0.2,0c0,0,0,0,0,0.1C14.7,2,14.6,2,14.5,2c-0.8,0.2-1.7,0.4-2.5,0.6
		c-0.1,0-0.3,0-0.3,0.2C11.5,2.9,11.4,2.9,11.3,2.9z"/>
	<path class="st28" d="M20.4,0.6c-0.6,0.1-1.2,0.3-1.8,0.4c-0.5,0.1-0.9,0.2-1.4,0.4l0,0c0,0,0,0,0,0c0-0.1-0.1-0.2,0.1-0.2
		c1-0.2,2-0.5,3-0.8C20.3,0.5,20.3,0.5,20.4,0.6z"/>
	<path class="st29" d="M11.6,2.8c0-0.1,0-0.2,0.1-0.2c1-0.2,2-0.5,3-0.8c0,0,0.1,0.1,0.1,0.1c-0.4,0-0.9,0.2-1.3,0.3
		c-0.6,0.1-1.1,0.3-1.7,0.4C11.8,2.8,11.7,2.8,11.6,2.8C11.7,2.9,11.7,2.9,11.6,2.8z"/>
	<path class="st30" d="M18.2,2.7C19.1,2.5,20,2.3,21,2c0.1,0,0.3,0,0.3-0.2c0,0,0.1,0.1,0.1,0.1c0,0.2-0.2,0.2-0.2,0.2
		c-0.5,0.1-1.1,0.3-1.6,0.4c-0.4,0.1-0.7,0.2-1.1,0.3C18.4,2.9,18.3,2.9,18.2,2.7C18.2,2.8,18.2,2.8,18.2,2.7z"/>
	<path class="st31" d="M18.3,2.8c0.5,0,0.9-0.2,1.4-0.3c0.5-0.1,1-0.3,1.5-0.4c0.1,0,0.2,0,0.2-0.1c0.1,0,0.1,0.1,0.1,0.2
		c-1,0.3-2.1,0.5-3.1,0.8C18.3,2.9,18.3,2.9,18.3,2.8z"/>
	<path class="st32" d="M15.8,1.8c-0.1,0-0.2,0-0.3,0c0,0-0.1,0-0.1,0c0,0,0-0.1,0.1-0.1c0.2-0.1,1.3-0.3,1.5-0.3
		c0,0.1-0.1,0.1-0.2,0.2C16.4,1.6,16.1,1.7,15.8,1.8z"/>
	<path class="st11" d="M9.3,3.5C9.3,3.5,9.3,3.5,9.3,3.5c0.3,0.4,0.6,0.8,0.9,1.2c0.1,0.1-0.1,0.1-0.1,0.1C9.2,5.1,8.3,5.3,7.3,5.5
		c-0.1,0-0.2,0-0.3-0.1C6.8,5.1,6.5,4.7,6.2,4.3c0-0.2,0.1-0.2,0.2-0.2C7,4,7.5,3.9,8,3.7C8.4,3.6,8.7,3.5,9,3.5
		C9.1,3.4,9.2,3.4,9.3,3.5z"/>
	<path class="st33" d="M3.8,4.9C3.9,5,4,5.2,4.1,5.3C4.1,5.4,4,5.4,4,5.4c0,0-0.1,0-0.1,0c-0.7,0-1.3,0.1-2,0.1
		c-0.1,0-0.3,0-0.3-0.1c0-0.1,0.1-0.2,0.2-0.2c0.6-0.1,1.2-0.3,1.8-0.4C3.8,4.8,3.8,4.9,3.8,4.9z"/>
	<path class="st34" d="M3.7,4.8C3,5,2.3,5.1,1.6,5.3c0,0,0,0.1,0,0.1c0.3,0,0.6,0,0.9,0c0.4,0,0.9,0,1.3,0c0.1,0,0.2,0,0.2-0.1
		c0.1,0.1,0.2,0.2,0.3,0.3c-0.1,0-0.1-0.1-0.2-0.1C4,5.5,3.8,5.5,3.6,5.5C2.8,5.5,1.9,5.6,1,5.6c-0.1,0-0.2,0-0.3-0.1
		c0-0.1,0.1-0.1,0.2-0.1c0.8-0.2,1.6-0.4,2.4-0.6C3.5,4.7,3.7,4.6,3.7,4.8z"/>
	<path class="st35" d="M3.7,4.8c0-0.1-0.1-0.1-0.2-0.1C2.6,5,1.7,5.2,0.9,5.4c0,0,0,0-0.1,0c0,0.1,0.1,0,0.2,0c0.9,0,1.8,0,2.7-0.1
		c0.2,0,0.3-0.1,0.5,0.1C3,5.5,1.9,5.6,0.8,5.6c-0.1,0-0.3,0-0.3-0.2c1.1-0.3,2.1-0.6,3.2-0.8c0.3,0,0.5-0.2,0.8-0.2
		c0,0.1-0.1,0.1-0.2,0.1c0.1,0,0.1,0,0.2,0.1C4.3,4.8,4.2,4.8,4,4.8c-0.1,0-0.2,0-0.2,0.1C3.8,4.9,3.7,4.9,3.7,4.8z"/>
	<path class="st36" d="M7,5.5c0.1,0.1,0.2,0,0.3,0C8.3,5.2,9.2,5,10.1,4.8c0,0,0.1,0,0.1-0.1c0.1,0,0.1,0.1,0.1,0.1
		c0,0.1-0.1,0.1-0.2,0.1C9.2,5.2,8.3,5.4,7.4,5.7c-0.1,0-0.2,0-0.3,0C7.1,5.6,7.1,5.5,7,5.5z"/>
	<path class="st37" d="M7.2,5.6c0.7-0.1,1.3-0.3,2-0.5C9.5,5,9.9,5,10.3,4.8c0,0,0,0,0.1,0C10.3,5,10.2,5,10.1,5
		c-1,0.3-1.9,0.5-2.9,0.7C7.2,5.7,7.2,5.7,7.2,5.6z"/>
	<path class="st30" d="M6.1,4.2C6.1,4.1,6,4.1,6.2,4c1-0.2,1.9-0.5,2.9-0.7c0.1,0,0.2,0,0.2,0.1C8.9,3.6,8.5,3.6,8.1,3.7
		C7.5,3.9,6.9,4,6.3,4.2C6.2,4.2,6.2,4.2,6.1,4.2C6.1,4.2,6.1,4.2,6.1,4.2z"/>
	<path class="st38" d="M6.1,4.2c0-0.1,0.1-0.1,0.2-0.1c1-0.2,1.9-0.5,2.9-0.7c0,0,0,0.1,0.1,0.1C8.6,3.6,8,3.8,7.3,4
		C7,4,6.7,4.1,6.3,4.2C6.3,4.2,6.2,4.2,6.1,4.2C6.2,4.3,6.2,4.3,6.1,4.2z"/>
	<path class="st39" d="M4.4,4.7c-0.1,0-0.3,0-0.4,0c0.1-0.2,0.3-0.1,0.5-0.2C4.6,4.4,4.8,4.4,5,4.3c0.1,0,0.1,0,0.2,0
		c0.1,0,0.1,0.1,0.1,0.2l0,0c-0.2,0-0.4,0.1-0.6,0.1C4.6,4.7,4.5,4.7,4.4,4.7z"/>
	<path class="st27" d="M5.3,4.5c0-0.2-0.2-0.1-0.3-0.1c0.2-0.1,0.3-0.1,0.5-0.1c0.1,0,0.2,0,0.2,0c0,0.1-0.1,0.1-0.1,0.2
		C5.5,4.4,5.4,4.5,5.3,4.5z"/>
	<path class="st0" d="M4.7,4.6c0.2-0.1,0.4-0.2,0.6-0.1C5.1,4.6,4.9,4.6,4.7,4.6z"/>
	<path class="st17" d="M2.4,5.7c-0.3,0.1-0.5,0-0.8,0C1.8,5.7,2.1,5.7,2.4,5.7z"/>
	<path class="st17" d="M1.3,5.8c-0.2,0.1-0.5,0-0.7,0C0.8,5.7,1,5.8,1.3,5.8z"/>
	<path class="st40" d="M22,6.1C22,6.1,22,6.1,22,6.1c0-0.2-0.2-0.1-0.2-0.1C21.9,5.9,22,5.9,22,6.1C22,6.1,22,6.1,22,6.1z"/>
	<path class="st41" d="M3.1,11.4C3,11.4,3,11.5,3.1,11.4c-0.1,0.1-0.1,0.2-0.2,0.2c0,0.1-0.1,0.2-0.2,0.2c-0.1,0-0.1-0.2-0.1-0.2
		c0.1-0.4,0.4-0.6,0.8-0.7c0.6-0.1,1.2-0.1,1.8-0.2c0.7-0.1,1.4-0.2,2.1-0.2c0.5-0.1,1-0.1,1.6-0.2c0.7-0.1,1.5-0.2,2.2-0.2
		c0.7-0.1,1.4-0.1,2.1-0.2c0.7-0.1,1.4-0.2,2.1-0.2C16,9.5,16.5,9.5,17,9.4c0.7-0.1,1.4-0.2,2.2-0.2c0.2,0,0.4,0,0.7-0.1
		c0.2-0.1,0.5,0,0.7,0c0.1,0,0.1,0,0.1,0.1c0,0.1,0,0.1-0.1,0.1c-0.1,0-0.1,0-0.2,0c-0.8,0-1.6,0.2-2.3,0.2
		c-0.7,0.1-1.4,0.1-2.1,0.2c-0.7,0.1-1.4,0.2-2.1,0.2c-0.7,0.1-1.4,0.2-2.1,0.2c-0.6,0.1-1.1,0.1-1.7,0.2c-0.5,0.1-1,0.1-1.6,0.2
		c-0.6,0.1-1.1,0.1-1.7,0.2c-0.6,0.1-1.1,0.1-1.7,0.2c-0.5,0.1-1,0.1-1.6,0.2C3.4,11.2,3.2,11.3,3.1,11.4z"/>
	<path class="st42" d="M14,18.2c0.5-0.1,1-0.1,1.5-0.2c0.4,0,0.4,0,0.5,0.4c0,0.1,0,0.1,0,0.2c0,0.2,0,0.4,0.1,0.7
		c0,0.3,0,0.3-0.3,0.4c-0.6,0.1-1.1,0.1-1.7,0.2c-0.9,0.1-1.8,0.2-2.7,0.3c-0.2,0-0.5,0.1-0.7-0.1c-0.1-0.2-0.1-0.4,0-0.6
		c0.6-1.2,1.3-2.4,1.9-3.6c0.2-0.3,0.3-0.6,0.4-0.9c0.1-0.3,0.2-0.6,0.1-0.9c0-0.1-0.1-0.1-0.1-0.2c-0.2-0.3-0.4-0.3-0.7-0.2
		c-0.5,0.1-0.7,0.3-0.9,0.7c-0.1,0.2-0.3,0.2-0.4,0.2c-0.3-0.2-0.7-0.4-1-0.7c-0.1-0.1,0-0.3,0-0.4c0.4-0.8,1.1-1.3,2.1-1.4
		c0.4-0.1,0.8,0,1.3,0.1c0.8,0.2,1.4,0.7,1.6,1.6c0.2,0.8-0.1,1.6-0.4,2.3c-0.3,0.7-0.7,1.3-1,2c-0.2,0.3-0.1,0.3,0.2,0.3
		C13.9,18.2,14,18.3,14,18.2z"/>
	<path class="st43" d="M5.8,17.1c-0.1-0.4-0.1-0.7-0.1-1.1c0-0.2,0.1-0.3,0.3-0.3c0.2,0,0.3,0,0.5-0.1c0.2-0.1,0.4-0.2,0.5-0.4
		c0.1-0.2,0-0.4-0.1-0.6c-0.2-0.3-0.5-0.5-0.9-0.3c-0.2,0.1-0.4,0.2-0.6,0.3c-0.3,0.3-0.4,0.3-0.7,0c-0.2-0.2-0.4-0.4-0.5-0.7
		c-0.1-0.2,0-0.3,0.1-0.4c0.5-0.5,1.1-0.8,1.9-0.8c0.4,0,0.8,0,1.2,0.1c0.8,0.3,1.3,0.8,1.4,1.7c0.1,0.6,0,1.1-0.3,1.6
		c-0.1,0.1-0.1,0.2,0,0.3c0.5,0.3,0.8,0.8,1,1.4c0.1,0.5,0.1,1-0.1,1.5c-0.4,0.9-1.2,1.3-2.2,1.5c-0.8,0.1-1.5,0-2.2-0.3
		c-0.1,0-0.2-0.1-0.2-0.2c-0.1-0.1-0.1-0.2,0-0.3c0.2-0.3,0.3-0.6,0.5-0.9c0.1-0.2,0.2-0.2,0.4-0.1c0.3,0.3,0.7,0.4,1.2,0.4
		c0.7-0.1,1-0.5,0.8-1.2c-0.2-0.4-0.5-0.7-1-0.7c-0.1,0-0.2,0-0.3,0C6,17.2,5.9,17.2,5.8,17.1z"/>
	<path class="st44" d="M19,19.1c-0.1-0.4-0.1-0.7-0.2-1.1c-0.1-1-0.2-2-0.3-3c0,0,0-0.1,0-0.1c0-0.2,0-0.3-0.1-0.5
		c-0.1-0.2-0.1-0.1-0.2-0.1c-0.3,0.2-0.5,0.4-0.8,0.6c-0.2,0.1-0.3,0.1-0.4,0c-0.1-0.4-0.1-0.9-0.2-1.3c0-0.1,0-0.2,0.2-0.3
		c0.8-0.5,1.4-1.1,2-1.8c0.2-0.2,0.7-0.2,0.9-0.1c0.2,2.1,0.4,4.1,0.7,6.2c0,0.4,0.1,0.8,0.1,1.2c0,0.2,0,0.4-0.3,0.4
		c-0.4,0.1-0.7,0.1-1.1,0.1C19.2,19.2,19.1,19.1,19,19.1z"/>
	<path class="st45" d="M2.7,11.6c0,0.1,0,0.2,0.1,0.2c0.1,0,0.1-0.1,0.1-0.2c0-0.1,0.1-0.1,0.2-0.2c-0.3,0.6-0.1,1.2,0,1.7
		c0.1,0.5,0.1,1.1,0.2,1.6c0.1,0.5,0.1,1.1,0.2,1.6c0.1,0.5,0.1,1.1,0.2,1.6c0.1,0.7,0.2,1.4,0.2,2.1c0,0.4,0.1,0.8,0.2,1.3
		c0,0.1,0,0.3,0,0.4c0,0.1,0,0.1-0.1,0.1c-0.1,0-0.1,0-0.1-0.1c-0.1-0.2-0.1-0.5-0.2-0.7c-0.1-0.9-0.2-1.9-0.3-2.8
		c-0.1-0.7-0.1-1.4-0.2-2.1c-0.1-0.7-0.2-1.4-0.2-2.1c-0.1-0.7-0.2-1.5-0.2-2.2C2.6,11.7,2.6,11.6,2.7,11.6z"/>
	<path class="st45" d="M3.1,11.4c0.1-0.2,0.3-0.2,0.5-0.3C4,11,4.4,11,4.8,11c0.7-0.1,1.5-0.2,2.2-0.2c0.5-0.1,1-0.1,1.5-0.2
		c0.6-0.1,1.1-0.1,1.7-0.2c0.6-0.1,1.1-0.1,1.7-0.2c0.5-0.1,1.1-0.1,1.6-0.2c0.4,0,0.7-0.1,1.1-0.1c0.7-0.1,1.5-0.2,2.2-0.2
		c0.5-0.1,1.1-0.1,1.6-0.2c0.6-0.1,1.1-0.1,1.7-0.2c0.1,0,0.3,0,0.4,0c0.1,0,0.1,0,0.1-0.1c0-0.1-0.1-0.1-0.1-0.1
		c-0.2,0-0.4,0-0.6,0C20.3,9,20.6,9,21,9.2c0.1,0,0.2,0.1,0.2,0.2c0,0.1-0.1,0-0.2,0c-0.5,0-0.9,0-1.4,0.1c-0.5,0.1-1.1,0.1-1.6,0.2
		c-0.7,0.1-1.4,0.2-2.2,0.2c-0.5,0.1-1,0.1-1.6,0.2c-0.6,0.1-1.2,0.1-1.7,0.2c-0.5,0.1-1.1,0.1-1.6,0.2c-0.6,0.1-1.1,0.1-1.6,0.2
		c-0.5,0.1-1.1,0.1-1.6,0.2c-0.7,0.1-1.5,0.2-2.2,0.2c-0.6,0.1-1.2,0.1-1.8,0.2C3.4,11.2,3.2,11.4,3.1,11.4z"/>
	<path class="st46" d="M10.8,20c0.1,0.1,0.3,0.1,0.5,0.1c1.5-0.2,3-0.3,4.5-0.5c0.3,0,0.4-0.1,0.3-0.4c0-0.2-0.1-0.4,0-0.5
		c0.1,0.3,0.1,0.6,0.1,0.9c0,0.2-0.1,0.3-0.3,0.3c-0.5,0.1-1,0.1-1.5,0.2c-0.7,0.1-1.4,0.2-2.1,0.2c-0.3,0-0.7,0.1-1,0.1
		C11,20.4,10.8,20.3,10.8,20z"/>
	<path class="st28" d="M9.1,19.2c0.2-0.5,0.2-1,0.1-1.5c0.2,0.7,0.1,1.3-0.2,1.9c-0.4,0.8-1.2,1.1-2,1.2c-0.6,0.1-1.2,0.1-1.8-0.2
		c-0.3-0.1-0.6-0.2-0.7-0.6c0.1,0,0.1,0.1,0.2,0.2C5.9,21,7.6,20.8,8.5,20C8.8,19.8,9,19.5,9.1,19.2z"/>
	<path class="st47" d="M14,18.2c-0.2,0.1-0.4,0-0.6,0.1c0-0.1,0-0.2,0.1-0.2c0.3-0.7,0.7-1.3,1-2c0.3-0.6,0.6-1.2,0.6-1.9
		c0-0.2,0-0.4,0-0.6c0.2,0.4,0.1,0.9,0,1.3c-0.1,0.6-0.4,1.2-0.7,1.7c-0.3,0.5-0.5,1-0.8,1.5C13.8,18.3,13.9,18.2,14,18.2z"/>
	<path class="st48" d="M13.2,13.8c0.1,0.1,0.1,0.1,0,0.2c-0.4-0.5-1.2-0.2-1.5,0.2c0,0.1-0.1,0.1-0.1,0.2c-0.2,0.3-0.3,0.3-0.6,0.1
		c-0.2-0.1-0.3-0.2-0.5-0.3c-0.2-0.1-0.3-0.2-0.4-0.5c0.3,0.2,0.6,0.4,0.9,0.6c0.2,0.1,0.3,0.1,0.5-0.1c0.1,0,0.1-0.1,0.1-0.2
		c0.3-0.4,0.8-0.6,1.3-0.5C13,13.6,13.1,13.6,13.2,13.8z"/>
	<path class="st49" d="M6.8,14.5c0.1,0.2,0.2,0.4,0.1,0.7c0-0.7-0.6-1-1.2-0.6c-0.1,0-0.2,0.1-0.2,0.2c-0.4,0.4-0.6,0.3-0.9-0.1
		c-0.1-0.1-0.2-0.3-0.3-0.4C4.1,14.1,4,14,4.1,13.9c0.2,0.2,0.4,0.4,0.5,0.7c0,0.1,0.1,0.1,0.1,0.1c0.2,0.2,0.3,0.2,0.5,0
		c0.3-0.3,0.7-0.5,1.1-0.4C6.5,14.3,6.7,14.3,6.8,14.5z"/>
	<path class="st50" d="M17,14.8c0.1,0.1,0.3,0.1,0.4,0c0.3-0.2,0.6-0.4,0.8-0.6c0.1-0.1,0.2-0.1,0.2,0.1c0,0.2,0.1,0.4,0.1,0.6
		c0,0,0,0,0,0c0-0.1,0-0.1,0-0.2c0-0.2-0.1-0.2-0.2-0.1c-0.2,0.2-0.5,0.4-0.7,0.5C17.2,15.2,17,15.1,17,14.8z"/>
	<path class="st51" d="M5.8,17.1c0.1,0.1,0.3,0.1,0.5,0.1c0.4,0,0.8,0.1,1.1,0.5c0.1,0.1,0.1,0.2,0.1,0.3c-0.3-0.5-0.7-0.6-1.2-0.5
		C6.1,17.4,5.9,17.3,5.8,17.1z"/>
	<path class="st52" d="M8.3,16.3c-0.2-0.1-0.2-0.1-0.1-0.3c0.4-0.5,0.5-1,0.4-1.6c0.1,0.6,0.1,1.1-0.2,1.6
		C8.4,16.1,8.3,16.2,8.3,16.3z"/>
	<path class="st34" d="M19,19.1c0.1,0.1,0.2,0.1,0.4,0.1c0.3,0,0.6-0.1,1-0.1c0.2,0,0.4-0.1,0.4-0.3c0.1,0.3,0,0.5-0.3,0.6
		c-0.3,0.1-0.6,0.1-0.9,0.1C19.2,19.3,19.1,19.3,19,19.1z"/>
	<path class="st25" d="M22.9,20c0,0.1,0,0.2-0.1,0.2c-0.1,0.3-0.3,0.4-0.5,0.6c-0.1,0-0.2,0.1-0.2,0.1c-0.6,0.1-1.2,0.2-1.8,0.2
		c-0.1-0.1-0.2,0-0.4-0.1c0.4-0.1,0.8-0.1,1.2-0.1c0.2,0,0.4,0,0.6-0.1c0.5-0.1,0.8-0.5,1-0.9C22.9,20.1,22.9,20,22.9,20z"/>
	<path class="st25" d="M22.8,19.5c0.1,0.2,0.1,0.3,0,0.5C22.8,19.8,22.8,19.6,22.8,19.5z"/>
	<path d="M10.1,9.2c0-0.1,0-0.2,0.1-0.3c0.1-0.5,0.3-1,0.4-1.4c0-0.1,0.1-0.1,0.2-0.1c0.7-0.1,1.4-0.2,2.1-0.2C12.9,7,13,7,13,7.1
		c0,0.2-0.1,0.4-0.1,0.6c-0.1,0.3-0.1,0.5-0.2,0.8c-0.1,0.1,0,0.4-0.2,0.5c-0.3,0.1-0.7,0.1-1,0.1c-0.4,0.1-0.8,0.1-1.2,0.1
		C10.2,9.3,10.1,9.3,10.1,9.2z"/>
	<path d="M18.3,7.9c-0.1,0.1-0.1,0.3-0.1,0.5c-0.3,0.1-0.6,0.1-0.9,0.1c-0.4,0.1-0.8,0.1-1.3,0.1c-0.1,0-0.2,0-0.3-0.1
		c-0.1-0.1,0-0.2,0-0.3c0.2-0.5,0.2-1,0.4-1.5c0,0,0.1-0.1,0.1-0.1c0.7-0.1,1.5-0.2,2.2-0.2c0.1,0,0.2,0,0.2,0.1
		C18.6,7,18.5,7.5,18.3,7.9z"/>
	<path class="st21" d="M15.8,8.3c0,0.1,0,0.2,0,0.3c-0.1,0.1-0.2,0.1-0.3,0.1c-0.7,0.1-1.4,0.1-2,0.2C13.2,8.9,13,9,12.7,9
		c-0.1,0-0.1,0-0.2,0c0.1-0.1,0.1-0.3,0.1-0.5c0.1,0.2,0.3,0.3,0.5,0.2c0.7-0.1,1.4-0.1,2.1-0.2c0.2,0,0.3,0,0.4-0.2
		C15.7,8.3,15.8,8.3,15.8,8.3z"/>
	<path class="st46" d="M16.3,6.7C16.3,6.8,16.3,6.8,16.3,6.7c-0.7,0.1-1.4,0.2-2.1,0.2C14,7,13.9,7,13.7,7c-0.2,0-0.5,0.1-0.7,0.2
		c0-0.1,0-0.1-0.1-0.1c-0.7,0.1-1.5,0.2-2.2,0.2c0,0-0.1,0-0.1,0c0-0.1,0-0.1-0.1-0.1c-1,0.1-1.9,0.2-2.9,0.3c-0.1,0-0.2,0-0.2,0.1
		c-0.2-0.1-0.4,0-0.7,0c-0.1,0-0.3,0-0.4,0c-0.2,0-0.3,0-0.5,0c0-0.1,0.1-0.1,0.1-0.1l0,0c0.4,0,0.8-0.1,1.3-0.1
		c0.2,0,0.4,0,0.5-0.1c0.8-0.1,1.6-0.2,2.4-0.2c0.2,0,0.3,0,0.5-0.1c0.3,0,0.7-0.1,1-0.1c0.1,0,0.3,0,0.5-0.1
		c0.4-0.1,0.9-0.1,1.3-0.1c0.9-0.1,1.8-0.2,2.8-0.3c0,0,0,0,0,0c0.3,0,0.7,0,1-0.1l0,0c0.5,0,0.9-0.1,1.4-0.1c0.1,0,0.2,0,0.3,0
		c0.1,0,0.1,0,0.2,0c-0.1,0.1-0.2,0-0.3,0.1c-0.5,0.1-1,0.1-1.5,0.2C16.9,6.7,16.6,6.6,16.3,6.7z"/>
	<path class="st53" d="M16.3,6.7c0.1-0.1,0.2-0.1,0.3-0.1c0.7,0,1.4-0.1,2.1-0.2c0,0,0.1,0,0.1,0c0,0,0,0,0,0.1c0,0,0,0.1-0.1,0.1
		c0-0.1-0.1-0.1-0.1-0.1C17.8,6.6,17,6.7,16.3,6.7z"/>
	<path class="st53" d="M0.5,6C0.8,5.8,3.7,5.7,4,5.8C3.8,5.9,0.9,6.1,0.5,6z"/>
	<path class="st53" d="M19,6.3c-0.1,0-0.1,0-0.2,0c0.2-0.1,0.5-0.1,0.7-0.1C20.3,6.1,21,6.1,21.7,6c0,0,0.1,0,0.1,0
		c0.1,0,0.2,0,0.2,0.1C21,6.1,20,6.3,19,6.3z"/>
	<path class="st40" d="M7.7,7.5C7.4,7.6,7,7.6,6.7,7.6c-0.3,0-0.5,0.1-0.8,0.1C6.3,7.6,6.6,7.6,7,7.5C7.2,7.5,7.5,7.4,7.7,7.5z"/>
	<path class="st40" d="M5.9,7.7c0,0-0.1,0.1-0.1,0.1c0.2,0,0.3,0,0.4,0C6,7.9,5.7,7.8,5.4,7.8c-0.1-0.1,0-0.1,0.1-0.1
		C5.6,7.7,5.8,7.7,5.9,7.7z"/>
	<path class="st40" d="M18.6,6.3c-0.5,0.1-0.9,0.1-1.4,0.1C17.7,6.4,18.1,6.3,18.6,6.3z"/>
	<path class="st40" d="M13.3,6.9C12.9,7,12.5,7,12,7C12.4,6.9,12.9,6.9,13.3,6.9z"/>
	<path class="st40" d="M17.2,6.5c-0.3,0.1-0.7,0.1-1,0.1C16.5,6.5,16.8,6.5,17.2,6.5z"/>
	<path class="st40" d="M11.6,7.1c-0.3,0.1-0.7,0.1-1,0.1C10.9,7.1,11.2,7.1,11.6,7.1z"/>
	<path class="st54" d="M21.4,21.2c-0.1,0.1-0.1,0-0.2,0.1c-0.1,0-0.1,0,0,0.1c-0.3,0.1-0.6,0.1-0.9,0.1c-0.2,0-0.3,0-0.5,0
		C20.3,21.3,20.8,21.2,21.4,21.2z"/>
	<path class="st55" d="M1.3,6.4C1.4,6.1,1.7,6.2,2,6.2C2,6.2,2,6.3,2,6.3c0,0.2-0.1,0.5-0.3,0.5C1.5,6.9,1.3,6.7,1.3,6.4z"/>
	<path class="st34" d="M2.2,6.3c0.1,0,0.1,0.2,0.2,0.2C2.3,6.8,2.1,6.9,1.8,7C1.6,7.1,1.5,7.1,1.3,7.2C1.2,7.1,1.1,6.9,1.2,6.8
		c0.1-0.1,0.2-0.1,0.2,0c0.3,0.2,0.5,0,0.6-0.3C2.1,6.4,2.1,6.3,2.2,6.3z"/>
	<path class="st38" d="M2.2,6.3c0,0.1-0.1,0.2-0.1,0.3C1.9,6.9,1.7,6.9,1.4,6.8c-0.1,0-0.1-0.1-0.2,0c0-0.1,0-0.3,0.1-0.4
		c0.1,0.1,0.1,0.2,0.2,0.3c0.1,0.1,0.2,0.1,0.3,0.1C1.9,6.7,2,6.6,2,6.4c0-0.1,0-0.2,0-0.2C2.1,6.2,2.1,6.2,2.2,6.3z"/>
	<path class="st56" d="M2.4,6.8c0,0.2-0.1,0.3-0.3,0.3c-0.1,0-0.3,0-0.4,0.1c-0.1,0.1-0.2,0.1-0.3,0c-0.1-0.1,0-0.2,0.1-0.2
		C1.8,7,2,6.9,2.2,6.8C2.3,6.8,2.3,6.8,2.4,6.8z"/>
	<path class="st57" d="M2.4,6.8C2.1,6.9,1.8,7,1.5,7.2c-0.1,0-0.1,0.1-0.1,0.1c-0.1,0-0.1,0-0.1-0.1C1.4,7.1,1.4,7,1.5,7
		c0.4,0,0.6-0.2,0.8-0.5C2.4,6.6,2.4,6.7,2.4,6.8z"/>
	<path class="st58" d="M1.5,8.7c0.2-0.2,0.4-0.3,0.7-0.2c0.1,0.2,0.1,0.4,0,0.5C2.1,9.1,2,9.2,1.8,9.1C1.6,9,1.5,8.9,1.5,8.7z"/>
	<path class="st59" d="M1.6,9.5C1.5,9.4,1.4,9.2,1.4,9.1c0.1-0.1,0.2,0,0.3,0c0.3,0.1,0.5,0,0.6-0.3c0-0.1,0.1-0.2,0.1-0.2
		c0.1,0,0.1,0.1,0.2,0.2c0,0.2-0.1,0.3-0.2,0.4C2.1,9.4,1.8,9.4,1.6,9.5z"/>
	<path class="st60" d="M2.6,9.1c0,0.2-0.1,0.4-0.4,0.4c-0.2,0-0.3,0.2-0.5,0c0-0.1,0-0.1,0-0.1C2,9.3,2.3,9.2,2.6,9.1z"/>
	<path class="st38" d="M2.4,8.6C2.3,9.1,2,9.3,1.6,9.1c0,0-0.1,0-0.1,0c0-0.1,0-0.3,0.1-0.4C1.5,8.9,1.7,9,1.8,9
		c0.2,0.1,0.3,0,0.4-0.2c0.1-0.1,0-0.3,0-0.4C2.3,8.5,2.3,8.5,2.4,8.6z"/>
	<path class="st61" d="M2.6,9.1C2.4,9.2,2.2,9.3,2,9.4c-0.1,0-0.2,0.1-0.3,0.2c-0.1,0-0.1,0-0.1-0.1c0.1-0.1,0.2-0.1,0.4-0.2
		c0.3-0.1,0.5-0.2,0.6-0.5C2.6,8.9,2.6,9,2.6,9.1z"/>
	<path class="st62" d="M3.9,8.5c0.2-0.3,0.4-0.3,0.7-0.2c0.1,0.1,0.1,0.2,0.1,0.3c0,0.2-0.2,0.4-0.4,0.4C4.1,8.9,3.9,8.7,3.9,8.5z"
		/>
	<path class="st59" d="M4.8,8.3c0.1,0,0.1,0.1,0.2,0.2C5,8.8,4.8,8.9,4.7,9C4.5,9.1,4.2,9.2,4,9.2C3.9,9.1,3.8,9,3.8,8.8
		c0.1-0.1,0.2,0,0.3,0c0.3,0.1,0.5,0,0.6-0.3C4.7,8.5,4.7,8.4,4.8,8.3z"/>
	<path class="st49" d="M4.8,8.3c0,0.1-0.1,0.2-0.1,0.3C4.6,8.9,4.4,9,4.1,8.9C4,8.9,3.9,8.8,3.8,8.8c0-0.1,0-0.3,0.1-0.4
		c0,0.2,0.1,0.2,0.3,0.3c0.2,0.1,0.4,0,0.4-0.2c0-0.1,0-0.2,0-0.3C4.7,8.2,4.8,8.3,4.8,8.3z"/>
	<path class="st63" d="M5,8.9C4.9,9.3,4.5,9.5,4.1,9.3c0-0.1,0-0.1,0.1-0.1C4.4,9.1,4.7,8.9,5,8.9z"/>
	<path class="st64" d="M5,8.9C4.8,9,4.6,9.1,4.4,9.1c-0.1,0-0.2,0.1-0.3,0.2c0,0-0.1-0.1-0.1-0.1C4,9.1,4.2,9.1,4.3,9.1
		C4.6,9,4.9,8.9,5,8.5C5.1,8.6,5,8.8,5,8.9z"/>
	<path class="st65" d="M5.2,23c-0.4,0.2-1.3,0.2-1.5-0.2c0,0-0.1-0.1,0-0.1c0,0,0.1,0,0.1,0c0.4,0.3,0.8,0.3,1.3,0.3
		C5,22.9,5.1,22.9,5.2,23C5.2,22.9,5.2,22.9,5.2,23z"/>
	<path class="st66" d="M22.4,20.9c0.2-0.2,0.4-0.4,0.5-0.6c0.2,0.2,0,0.3-0.1,0.4c0-0.1-0.1-0.1-0.1,0
		C22.6,20.7,22.5,20.9,22.4,20.9z"/>
	<path class="st67" d="M12.3,12.1c1.7-0.2,3,0.8,2.6,2.6c-0.1,0.5-0.3,0.9-0.5,1.4c-0.4,0.7-0.7,1.4-1.1,2.1c0,0.1-0.1,0.2-0.1,0.3
		c0.2,0,0.4,0,0.5,0c0,0.1-0.1,0.1-0.2,0.1c-0.1,0-0.2,0-0.3,0.2c0.6,0,1.1-0.1,1.6-0.1c0.2,0,0.4,0,0.6-0.1c0.1-0.1,0-0.1-0.1-0.1
		c-0.1,0-0.2,0-0.3-0.1c0.2-0.1,0.4,0,0.6-0.1c0.1,0,0.1,0,0.2,0.1c0,0.3,0,0.6,0.1,0.8c0.1,0.3-0.1,0.3-0.3,0.3
		c-0.6,0.1-1.2,0.1-1.8,0.2c-0.9,0.1-1.8,0.2-2.7,0.3c-0.3,0-0.4-0.1-0.3-0.4c0.6-1.2,1.3-2.4,1.9-3.6c0.3-0.5,0.5-1,0.6-1.5
		c0-0.2,0-0.4,0-0.6c-0.1-0.3-0.3-0.4-0.5-0.5c-0.6-0.1-1.2,0.1-1.5,0.7c-0.1,0.2-0.2,0.2-0.4,0.1c-0.2-0.2-0.5-0.3-0.7-0.4
		c-0.1-0.1-0.1-0.1-0.1-0.2c0.2-0.5,0.6-0.9,1.1-1.2c0,0.1-0.1,0.2-0.2,0.2c-0.3,0.2-0.4,0.4-0.5,0.7c0.3-0.3,0.6-0.6,1-0.8
		c0.7-0.3,1.5-0.2,2.2,0.1c-0.1-0.1-0.2-0.1-0.3-0.2c-0.1-0.1-0.2-0.1-0.4-0.1c-0.2-0.1-0.4-0.1-0.7-0.1
		C12.4,12.2,12.4,12.2,12.3,12.1z"/>
	<path class="st68" d="M14.8,18.6c-0.2,0.1-0.4,0-0.6,0.1c-0.3,0.1-0.6,0.1-0.9,0.1c-0.1,0-0.1,0-0.2-0.1c0-0.1,0.1-0.1,0.1-0.1
		c0.1-0.1,0.3,0,0.5-0.1c0.5-0.1,1-0.1,1.4-0.2c0.1,0,0.2,0,0.3,0c0.2,0,0.2,0.1,0.1,0.2c-0.1-0.1-0.2-0.1-0.3-0.1
		c-0.3,0-0.6,0.1-0.9,0.1C14.5,18.6,14.7,18.5,14.8,18.6z"/>
	<path class="st69" d="M12.3,12.1c0.5,0,1.1,0.1,1.5,0.4c0.1,0,0.2,0.1,0.1,0.2c-0.1,0.1-0.2,0-0.2,0c-0.7-0.2-1.4-0.3-2,0
		c0,0,0,0,0-0.1c0.1-0.1,0.3-0.2,0.5-0.2c0.3,0,0.7,0,1,0c-0.4-0.1-0.8-0.1-1.2,0c-0.1,0-0.2,0-0.2-0.1
		C11.9,12.1,12.1,12.2,12.3,12.1z"/>
	<path class="st70" d="M11.7,12.6C11.7,12.6,11.7,12.6,11.7,12.6c-0.4,0.2-0.7,0.4-0.9,0.8c0,0-0.1,0.1-0.2,0.1c-0.1,0,0-0.1,0-0.2
		c0.1-0.3,0.3-0.5,0.6-0.7c0.1-0.1,0.2-0.1,0.2-0.2c0.1-0.1,0.2-0.1,0.3-0.1c0.1,0.1,0.1,0,0.2,0c0,0.1-0.1,0.1-0.1,0.1
		c-0.3,0.1-0.6,0.3-0.8,0.5c0,0,0,0,0,0c0,0,0,0,0,0c0.1-0.1,0.3-0.2,0.4-0.3C11.5,12.6,11.6,12.5,11.7,12.6z"/>
	<path class="st34" d="M13.2,13.8c-0.5-0.3-1.2-0.2-1.6,0.4c0,0.1-0.1,0.1-0.1,0.1c0.2-0.6,0.8-0.9,1.4-0.7
		C13,13.6,13.2,13.6,13.2,13.8z"/>
	<path class="st71" d="M5.7,12.8c0.8-0.1,1.5-0.1,2.2,0.5c0.8,0.7,0.8,2,0.1,2.8c-0.1,0.1-0.1,0.1-0.2,0.2c0,0.1,0.1,0.1,0.1,0.1
		c1.3,0.6,1.4,2.3,0.8,3.1c-0.4,0.6-1,0.9-1.7,1.1c-0.8,0.2-1.6,0.1-2.4-0.3c-0.2-0.1-0.2-0.2-0.1-0.4c0.2-0.3,0.3-0.6,0.5-0.9
		c0.2,0.3,0,0.5-0.1,0.7c0.2-0.4,0.4-0.3,0.7-0.2c-0.2-0.1-0.3-0.1-0.4-0.3C5.3,19,5.2,19,5.3,18.8c0.4,0.3,0.9,0.5,1.4,0.4
		c0.6-0.1,0.9-0.5,0.9-1.1c0-0.6-0.4-1.1-1-1.1c-0.1,0-0.2,0-0.3,0c-0.4,0-0.4,0-0.5-0.4c0-0.2,0-0.4-0.1-0.6c0-0.2,0-0.3,0.2-0.2
		c0,0.1,0,0.2,0.1,0.2c0.1,0,0.2,0,0.3,0c0.3,0,0.6-0.2,0.8-0.5c-0.1,0.1-0.2,0.2-0.3,0.2c0,0,0,0-0.1,0c-0.1,0-0.1,0-0.2-0.1
		c0.4-0.3,0.5-0.8,0.3-1.3c-0.2-0.4-0.8-0.6-1.3-0.3c-0.2,0.1-0.4,0.2-0.6,0.4c-0.1,0.1-0.2,0.1-0.3,0c-0.2-0.2-0.4-0.4-0.6-0.7
		c-0.1-0.1-0.1-0.2,0-0.3C4.4,13.3,4.7,13.1,5,13c0,0.1-0.1,0.2-0.1,0.2c-0.1,0.1-0.2,0.2-0.3,0.3c0.3-0.1,0.6-0.3,0.9-0.4
		c0,0,0,0,0.1,0c0.8-0.2,1.4-0.1,2,0.2c-0.4-0.3-0.8-0.5-1.3-0.5C6.1,12.8,5.9,12.9,5.7,12.8z"/>
	<path class="st72" d="M5.7,12.8c0.3,0,0.6,0,1,0.1c0.4,0.1,0.7,0.2,1,0.5c0,0,0.1,0.1,0.1,0.2c-0.1,0.1-0.1,0-0.1-0.1
		C7,13.1,6.4,13,5.7,13.1c-0.1,0-0.1,0-0.2,0C5.5,13,5.6,13,5.7,13c0.4-0.1,0.8-0.1,1.2,0c-0.9-0.2-1.6-0.1-2.1,0.4
		c0.2-0.1,0.4-0.4,0.7-0.3c-0.3,0.1-0.6,0.3-0.8,0.5c-0.1,0-0.1,0.1-0.2,0c-0.1-0.1,0-0.1,0.1-0.2C4.7,13.3,4.9,13.2,5,13
		C5.2,12.9,5.5,12.8,5.7,12.8z"/>
	<path class="st51" d="M9.1,19.2c-0.1,0.6-0.5,0.9-1,1.2c-1,0.5-1.9,0.6-3,0.2c-0.2-0.1-0.3-0.1-0.4-0.3c0.4,0.2,0.8,0.4,1.2,0.4
		c1,0.1,2-0.1,2.7-0.8C8.9,19.6,9,19.4,9.1,19.2z"/>
	<path class="st73" d="M6.8,14.5c-0.3-0.4-1.1-0.2-1.5,0.2C5,15,4.8,14.9,4.6,14.5c0,0,0.1,0,0.1,0.1c0.2,0.2,0.3,0.2,0.5,0
		c0.3-0.3,0.6-0.5,1.1-0.5C6.5,14.2,6.7,14.2,6.8,14.5z"/>
	<path class="st74" d="M5.3,18.8c0,0.2,0.1,0.3,0.3,0.4c0.1,0.1,0.2,0.1,0.3,0.1c0,0,0.1,0,0.1,0.1c0,0-0.1,0.1-0.1,0
		c0,0-0.1,0-0.1,0c-0.3-0.1-0.5-0.1-0.6,0.2c0,0-0.1,0.1-0.1,0.1c-0.1,0,0-0.1,0-0.1c0.1-0.2,0.2-0.5,0.2-0.7
		C5.2,18.7,5.2,18.8,5.3,18.8z"/>
	<path class="st75" d="M6.1,16.1C6,16,6,15.9,6.1,15.8c0.2-0.1,0.4-0.1,0.6-0.2c0.1,0,0.1,0,0.2,0c0,0.2-0.1,0.1-0.2,0.2
		C6.5,15.9,6.3,15.9,6.1,16.1z"/>
	<path class="st76" d="M18.5,13.7c-0.4,0.3-0.7,0.5-1,0.8c-0.4,0.3-0.4,0.3-0.5-0.2c0-0.2,0-0.4-0.1-0.6c0-0.2,0-0.3,0.2-0.5
		c0.7-0.4,1.3-1,1.8-1.7c0.1-0.1,0.5-0.3,0.6-0.2c0.1,0,0.1,0.1,0.1,0.2c0,0.4,0.1,0.8,0.1,1.2c0.1,0.9,0.2,1.8,0.3,2.7
		c0.1,0.8,0.2,1.7,0.3,2.5c0,0.2,0.1,0.5,0.1,0.7c0,0.1,0,0.2-0.1,0.3c-0.4,0-0.7,0.1-1.1,0.1c-0.1,0-0.2,0-0.2-0.2
		c-0.1-0.6-0.1-1.1-0.2-1.7c-0.1-0.9-0.2-1.8-0.3-2.6C18.6,14.2,18.6,14,18.5,13.7z"/>
	<path class="st11" d="M13,7.2C13.1,7,13.2,7,13.3,7c0.5-0.1,1-0.1,1.5-0.2c0.4,0,0.8-0.1,1.2-0.1c0.1,0,0.2,0,0.2,0.1
		c-0.1,0.5-0.3,1-0.4,1.5c-0.2,0.3-0.6,0.3-0.9,0.4c-0.6,0.1-1.1,0.1-1.7,0.2c-0.1,0-0.1,0-0.2,0c-0.2,0-0.3-0.1-0.3-0.3
		C12.8,8.1,12.9,7.6,13,7.2z"/>
	<path class="st77" d="M13.4,15.3c0.1,0.1,0,0.2,0,0.3c-0.3,0.5-0.5,1-0.8,1.6c-0.4,0.7-0.7,1.4-1.1,2c0,0.1-0.1,0.1-0.1,0.2
		c0,0.1-0.1,0.2-0.2,0.1c-0.1,0,0-0.1,0-0.2c0.6-1.1,1.1-2.1,1.7-3.2C13.1,15.9,13.2,15.6,13.4,15.3z"/>
	<path class="st78" d="M14.8,18.6c-0.2,0-0.4,0-0.7,0c0.1-0.1,0.2-0.1,0.3-0.1c0.3,0,0.6-0.1,0.9-0.1c0.2,0,0.2,0,0.2,0.2
		C15.3,18.6,15.1,18.6,14.8,18.6z"/>
	<path class="st79" d="M11.7,12.6c-0.3,0.1-0.5,0.3-0.8,0.5c0.2-0.4,0.6-0.6,1.1-0.8c0.4-0.1,0.9-0.1,1.3,0c0,0,0.1,0,0.1,0
		c0,0,0,0,0.1,0.1C12.9,12.4,12.3,12.3,11.7,12.6z"/>
	<path class="st80" d="M6.1,16.1c0-0.2,0.1-0.2,0.2-0.2c0.2-0.1,0.4-0.1,0.5-0.2c0,0,0,0,0,0c0.1,0,0.1-0.1,0.2,0
		c0,0.1,0,0.1-0.1,0.1C6.8,16,6.6,16,6.4,16.1C6.3,16.1,6.2,16.1,6.1,16.1z"/>
	<path class="st81" d="M8.4,17c-0.2-0.2-0.4-0.3-0.6-0.4c0,0-0.1-0.1-0.1-0.1c0-0.1,0.1,0,0.2,0C8.1,16.6,8.3,16.7,8.4,17z"/>
	<path class="st82" d="M6.4,16.1c0.2-0.1,0.4-0.1,0.5-0.3c0.1-0.1,0-0.1-0.1-0.1c0.1-0.1,0.2-0.2,0.4-0.3C7.3,15.7,6.9,16,6.4,16.1z
		"/>
	<path class="st83" d="M5.5,13.2c-0.4,0-0.6,0.3-0.9,0.4c0.2-0.7,1.8-1,2.6-0.5c-0.4-0.1-0.7-0.1-1-0.1C6,13,5.7,13,5.5,13.2
		C5.5,13.2,5.5,13.2,5.5,13.2z"/>
	<path class="st84" d="M18.4,12.4c0.3-0.3,0.6-0.6,0.8-1c0-0.1,0.2-0.1,0.2,0c0.1,0.1,0.1,0.2,0,0.2c-0.2,0.1-0.3,0.4-0.5,0.6
		c-0.4,0.5-0.9,0.9-1.4,1.2c-0.1,0-0.1,0.1-0.2,0c-0.1,0-0.1-0.1,0-0.2c0.2,0,0.3-0.1,0.5-0.2C18,12.9,18.2,12.7,18.4,12.4
		C18.6,12.4,18.4,12.4,18.4,12.4z"/>
	<path class="st85" d="M18.4,12.4c0.1,0,0.1,0,0.2-0.1c-0.2,0.3-0.5,0.5-0.7,0.7c-0.1,0.1-0.3,0.2-0.5,0.3c-0.1,0.1-0.1,0.1-0.2,0
		c0.2-0.2,0.5-0.4,0.7-0.6C18.2,12.7,18.2,12.6,18.4,12.4C18.4,12.5,18.4,12.4,18.4,12.4z"/>
	<path class="st84" d="M18.3,12.5c-0.1,0.1-0.1,0.2-0.3,0.3C18.1,12.7,18.2,12.6,18.3,12.5z"/>
	<path class="st86" d="M19.2,11.7c0-0.1,0.1-0.2,0.2-0.2c0,0,0.1,0,0.1,0.1C19.4,11.6,19.3,11.6,19.2,11.7z"/>
</g>
</svg>
